<svg id="_1-10" data-name=" 1-10" xmlns="http://www.w3.org/2000/svg" xmlns:xlink="http://www.w3.org/1999/xlink" viewBox="0 0 376.45 283.36"><defs><style>.cls-1{fill:#d2e9e3;}.cls-2{fill:url(#Namnlös_övertoning_15);}.cls-3{fill:#f3a71c;}.cls-4{fill:#333;}.cls-5{fill:url(#Namnlös_övertoning_2);}.cls-6{fill:url(#Namnlös_övertoning_15-2);}.cls-7{fill:#6de1fc;}.cls-8{fill:#e54c3c;}.cls-9{fill:#f5604b;}.cls-10{fill:#c67445;}.cls-11{fill:#56403d;}.cls-12{fill:#80c4b1;}.cls-13{fill:#fff;}.cls-14{fill:#f1a317;}.cls-15{fill:#974c26;}.cls-16{fill:#999a1c;}.cls-17{fill:#ab643c;}.cls-18{fill:#a8a93d;}.cls-19{fill:#fbb5ad;}.cls-20{fill:#382624;}.cls-21{fill:#e2e2e2;}.cls-22{fill:#e35541;}.cls-23,.cls-32{fill:none;stroke-miterlimit:10;}.cls-23{stroke:#56403d;stroke-linecap:round;stroke-dasharray:3.04 5.06;}.cls-24{fill:#be6b3d;}.cls-25{fill:#009245;}.cls-26{fill:#5c2e2e;}.cls-27{fill:#fdc49a;}.cls-28{fill:#faedd4;}.cls-29{fill:#155a93;}.cls-30{fill:#659fe4;}.cls-31{fill:#c5e9ff;}.cls-32{stroke:#fff;}.cls-33{fill:url(#Namnlös_övertoning_15-3);}</style><linearGradient id="Namnlös_övertoning_15" x1="761.58" y1="1391.63" x2="743.81" y2="1369.43" gradientTransform="matrix(1, 0, 0, -1, -200, 1834.25)" gradientUnits="userSpaceOnUse"><stop offset="0" stop-color="#8be9e3"/><stop offset="0.99" stop-color="#d2e9e3"/></linearGradient><linearGradient id="Namnlös_övertoning_2" x1="812.04" y1="1327.65" x2="806.76" y2="1318.69" gradientTransform="matrix(1, 0, 0, -1, -687.37, 1512.14)" gradientUnits="userSpaceOnUse"><stop offset="0" stop-color="#d4a397"/><stop offset="0.99" stop-color="#ffd6a9"/></linearGradient><linearGradient id="Namnlös_övertoning_15-2" x1="913.29" y1="1284.39" x2="888.35" y2="1264.09" xlink:href="#Namnlös_övertoning_15"/><linearGradient id="Namnlös_övertoning_15-3" x1="1010.26" y1="1311.23" x2="992.28" y2="1291.51" xlink:href="#Namnlös_övertoning_15"/></defs><title>header-bg</title><path class="cls-1" d="M653.73,381.3,492.48,475.1a10.27,10.27,0,0,0,.15,17.84L690,603.4a16.26,16.26,0,0,0,15.64.13L857.31,522a12.36,12.36,0,0,0,.38-21.56Z" transform="translate(-487.37 -322.11)"/><path class="cls-2" d="M542.31,446.53l-19.93,11.58s1.11,16.91,21.51,14.29l36.77-20.14" transform="translate(-487.37 -322.11)"/><ellipse class="cls-3" cx="77.09" cy="122.68" rx="22.17" ry="10.96"/><path class="cls-3" d="M586.62,415.6v29.8s-16.5,15.27-44.33.25v-30" transform="translate(-487.37 -322.11)"/><path class="cls-3" d="M545.61,426.25s-3.67-5.62-7.13-2.38-.43,14.48,9.72,15.56V444s-12.75-1.73-14.48-13.18,6.49-13.22,10.59-10.07" transform="translate(-487.37 -322.11)"/><path class="cls-4" d="M671.1,455.26,652,464.47a4.4,4.4,0,0,0-.31,7.77L697,498.69a4.4,4.4,0,0,0,5.92-1.42l11-17.14" transform="translate(-487.37 -322.11)"/><polyline class="cls-5" points="140.26 190.86 64.98 151.22 53.48 158.72 176.24 225.92 193.14 214.87"/><path class="cls-6" d="M692.52,550.54,674.6,561.16s11.75,11.26,25.43,17l16.63-10.86" transform="translate(-487.37 -322.11)"/><polyline class="cls-7" points="203.43 220.82 203.43 229.2 229.29 245.2 260.32 226.24 260.32 219.1"/><polyline class="cls-8" points="203.43 220.82 203.43 229.2 229.29 245.2 260.32 226.24 260.32 219.1"/><polygon class="cls-9" points="260.32 219.1 233.97 203.34 203.43 220.82 229.78 236.83 260.32 219.1"/><path class="cls-10" d="M722.68,546.87a13.28,13.28,0,0,1-1.73-2.69c-.11-.64,1.45-3.69,1.74-3.6a14.73,14.73,0,0,1,2.92,1.93" transform="translate(-487.37 -322.11)"/><path class="cls-11" d="M723,541.87c.06.24-.86,4.83-.28,5a19.88,19.88,0,0,0,3.69,0,45.5,45.5,0,0,0,.42-5" transform="translate(-487.37 -322.11)"/><path class="cls-10" d="M727.31,536l-4.62,1.29c0,.11-.76,4.27-.18,4.89a23.12,23.12,0,0,0,2.3,1.44,35.67,35.67,0,0,0,.25,4.35,2.26,2.26,0,0,0,.83,0c.19-1.51.45-4.58.45-4.58s1.35-.47,1.43-.89S727.31,536,727.31,536Z" transform="translate(-487.37 -322.11)"/><path class="cls-10" d="M736.72,568.54a17.22,17.22,0,0,1-2.16-3.36c-.16-.81,1.81-4.61,2.18-4.5a18.38,18.38,0,0,1,3.64,2.41" transform="translate(-487.37 -322.11)"/><path class="cls-11" d="M737.07,562.28c.07.3-1.08,6-.35,6.26a24.81,24.81,0,0,0,4.61,0c.24,0,.52-6.26.52-6.26" transform="translate(-487.37 -322.11)"/><path class="cls-10" d="M742.51,555l-5.77,1.61c0,.14-1,5.33-.23,6.1s2.92,1.66,2.87,1.8a44.5,44.5,0,0,0,.31,5.42,2.81,2.81,0,0,0,1,0c.23-1.89.56-5.72.56-5.72s1.69-.59,1.78-1.11S742.51,555,742.51,555Z" transform="translate(-487.37 -322.11)"/><path class="cls-12" d="M775.19,410.94,622.59,323a6.88,6.88,0,0,0-10.32,6v91.45a5.72,5.72,0,0,0,2.86,5l162.66,93.89a3.69,3.69,0,0,0,5.54-3.2V425A16.25,16.25,0,0,0,775.19,410.94Z" transform="translate(-487.37 -322.11)"/><path class="cls-13" d="M622.61,329.94l148,85.13a10.37,10.37,0,0,1,5.2,9v68.56a3.75,3.75,0,0,1-5.61,3.25l-150.89-86.6a3.69,3.69,0,0,1-1.86-3.2V332.95a3.48,3.48,0,0,1,5.16-3Z" transform="translate(-487.37 -322.11)"/><path class="cls-7" d="M613.61,431.37c2.72-.45,34.23,19.27,34.23,19.27v7.71l-12.92,7.25-35.13-19.27v-9.06Z" transform="translate(-487.37 -322.11)"/><path class="cls-14" d="M613.61,431.37c2.72-.45,34.23,19.27,34.23,19.27v7.71l-12.92,7.25-35.13-19.27v-9.06Z" transform="translate(-487.37 -322.11)"/><path class="cls-15" d="M592.31,450.51l-40,22.82a2.74,2.74,0,0,0,0,4.75l110.91,63.79a8.86,8.86,0,0,0,8.85,0l37.35-21.57a2.86,2.86,0,0,0,0-5l-112.2-64.81A5,5,0,0,0,592.31,450.51Z" transform="translate(-487.37 -322.11)"/><path class="cls-7" d="M617.93,525.18a3.28,3.28,0,0,0-1.85-2.44l-5.92-3.42L601,514l-10.93-6.33-11.63-6.74-11.25-6.51-9.78-5.66-7.23-4.19-3.8-2.2c0,.08-.13.08-.21.06a2.71,2.71,0,0,0-3.31,3.3,8.62,8.62,0,0,0,3.27,4.27A131.38,131.38,0,0,0,560,498.7V497c-3.22-1.76-10.16-5.74-13.08-8.74l1.39.81,3.83,2.24,5.76,3.37,7.19,4.2,8.12,4.74,8.54,5,8.46,4.95,7.88,4.6,6.79,4,5.2,3c1.59.93,3.31,2.19,5.16,2.55a2.54,2.54,0,0,0,2.71-2.35Q617.93,525.27,617.93,525.18Z" transform="translate(-487.37 -322.11)"/><path class="cls-16" d="M617.93,525.18a3.28,3.28,0,0,0-1.85-2.44l-5.92-3.42L601,514l-10.93-6.33-11.63-6.74-11.25-6.51-9.78-5.66-7.23-4.19-3.8-2.2c0,.08-.13.08-.21.06a2.71,2.71,0,0,0-3.31,3.3,8.62,8.62,0,0,0,3.27,4.27A131.38,131.38,0,0,0,560,498.7V497c-3.22-1.76-10.16-5.74-13.08-8.74l1.39.81,3.83,2.24,5.76,3.37,7.19,4.2,8.12,4.74,8.54,5,8.46,4.95,7.88,4.6,6.79,4,5.2,3c1.59.93,3.31,2.19,5.16,2.55a2.54,2.54,0,0,0,2.71-2.35Q617.93,525.27,617.93,525.18Z" transform="translate(-487.37 -322.11)"/><ellipse class="cls-17" cx="684.16" cy="455.64" rx="3.22" ry="3.68" transform="translate(-561.19 -184.51) rotate(-10.9)"/><path class="cls-18" d="M684.74,378.25l43.13,25a2.81,2.81,0,0,1,1.4,2.54l-1.49,38.71a2.81,2.81,0,0,1-4.21,2.33L681.93,422.9a2.81,2.81,0,0,1-1.41-2.44V380.69a2.81,2.81,0,0,1,4.22-2.44Z" transform="translate(-487.37 -322.11)"/><path class="cls-19" d="M700.19,385a.53.53,0,0,0,0-.09L700,383.6c-1.67-.08-2.62.32-4.29.33a5.81,5.81,0,0,0-1.57,3.09c0,.83.1,2,1.12,1.88.16.77.61,1.78,1.52,1.57l.12-.05c.06.51.22,1,.71,1.15s.8-.12,1-.57c.18.68.5,1.72,1.19,1.71.94,0,1-1.39.76-2.77A35.75,35.75,0,0,0,700.19,385Z" transform="translate(-487.37 -322.11)"/><path class="cls-11" d="M695.53,386.57a6.05,6.05,0,0,0-.34,2.33.19.19,0,0,0,.38,0,5.78,5.78,0,0,1,.33-2.23C696,386.44,695.61,386.34,695.53,386.57Z" transform="translate(-487.37 -322.11)"/><path class="cls-11" d="M696.93,387.33l-.16,3.21a.19.19,0,0,0,.38,0l.16-3.21A.19.19,0,0,0,696.93,387.33Z" transform="translate(-487.37 -322.11)"/><path class="cls-11" d="M698.31,386.87v4.25a.19.19,0,1,0,.38,0v-4.25a.19.19,0,0,0-.38,0Z" transform="translate(-487.37 -322.11)"/><path class="cls-19" d="M700,383.6a7.72,7.72,0,0,1,2.11,4.8l-1.81-1.14Z" transform="translate(-487.37 -322.11)"/><path class="cls-19" d="M716.83,392.66s-1.34.24-1.37.22c-1.16.73-4.11,2.24-5.34,2.83-.73.35-2.54,1.11-2.14,2.21.21.59.8.69,1.56.52a.71.71,0,0,0,.32.85,1.43,1.43,0,0,0,1.47-.16.81.81,0,0,0,.29.47c.63.54,1.83-.06,2.52-.38a2,2,0,0,0,0,.38c0,.4.4.79.77.59,1.77-.94,4.55-4.37,5.36-6C718.59,393.55,718.48,393.36,716.83,392.66Z" transform="translate(-487.37 -322.11)"/><path class="cls-11" d="M715.63,397.49a8.48,8.48,0,0,1-1.64,1.72c-.18.14.07.38.25.25a8.79,8.79,0,0,0,1.7-1.79C716.06,397.49,715.76,397.31,715.63,397.49Z" transform="translate(-487.37 -322.11)"/><path class="cls-11" d="M714.58,396.6q-1.53,1.22-3.12,2.36c-.18.13,0,.43.18.3q1.67-1.17,3.19-2.39C715,396.71,714.75,396.46,714.58,396.6Z" transform="translate(-487.37 -322.11)"/><path class="cls-11" d="M712.93,396.16a22.18,22.18,0,0,1-3.46,2c-.2.1,0,.4.18.3a22.18,22.18,0,0,0,3.46-2C713.31,396.33,713.11,396,712.93,396.16Z" transform="translate(-487.37 -322.11)"/><path class="cls-19" d="M715.46,392.87s-1.69-1.24-4.54.66l2.39,1.49" transform="translate(-487.37 -322.11)"/><path class="cls-19" d="M752.75,459a.53.53,0,0,0-.66-.35h0a6,6,0,0,0,0-1c0-.47-.09-1.14-.6-1.34a.73.73,0,0,0-.84.25,5.39,5.39,0,0,0-.25-.9.54.54,0,0,0-.51-.38c-.57,0-.86.46-1,1,0-.05-.21-.24-.26-.27a.58.58,0,0,0-.32-.11.91.91,0,0,0-.6.18.94.94,0,0,0-.28.61,4.84,4.84,0,0,0,0,1.15c0,.47.1.93.13,1.4s0,.66,0,1c-.44-.85-1.06-1.91-1.78-1.41s-.09,1.18.11,1.65a18.51,18.51,0,0,0,1.46,2.68,9.65,9.65,0,0,1-.31,1.24,28.07,28.07,0,0,1,3.87,1.94,34.07,34.07,0,0,1,1.43-3.9A4.55,4.55,0,0,0,752.75,459Z" transform="translate(-487.37 -322.11)"/><path class="cls-11" d="M748.75,456.24q-.06,1.94-.21,3.87a.09.09,0,0,0,.17,0q.15-1.93.21-3.87A.09.09,0,1,0,748.75,456.24Z" transform="translate(-487.37 -322.11)"/><path class="cls-11" d="M750.49,456.57q-.17,1.75-.42,3.48c0,.11.15.16.17,0q.26-1.76.43-3.53C750.67,456.46,750.5,456.46,750.49,456.57Z" transform="translate(-487.37 -322.11)"/><path class="cls-11" d="M752,458.73q-.13,1.22-.38,2.42c0,.11.15.16.17,0q.25-1.22.38-2.46C752.19,458.62,752,458.62,752,458.73Z" transform="translate(-487.37 -322.11)"/><path class="cls-19" d="M712.48,458.76c-.12-.27-.24-.54-.35-.82a.91.91,0,0,1-.07-.46,10.11,10.11,0,0,0,.18-1.28,11.35,11.35,0,0,0-.81-4,1.37,1.37,0,0,0-2.06-.74l-.37-.67c-.69-1.22-1.43-3.32-3-3.48a.75.75,0,0,0-.72,1q.45,1.18.93,2.34a.72.72,0,0,0-1,0l0,0a1.29,1.29,0,0,0-.25,1.45h-.19a1.29,1.29,0,0,0-.54-.14,1.05,1.05,0,0,0-.77.41,1.11,1.11,0,0,0-.16,1h-.13a1,1,0,0,0-.62.68,1.27,1.27,0,0,0,0,.64c-.08.78,4,4.6,4,4.6l2.42,2.65L713,460A5.35,5.35,0,0,0,712.48,458.76Z" transform="translate(-487.37 -322.11)"/><path class="cls-3" d="M740,495.58c-7.21-12.32-14-.28-14-.28a45,45,0,0,0-6.45,12.57c-1.66,5.66-1.65,24-.83,29.46,3,1.16,9.71.81,12.84-.08v-22a.27.27,0,0,1,.53,0l.15,43.69a39.36,39.36,0,0,0,15.44-2.54S746.79,507.17,740,495.58Z" transform="translate(-487.37 -322.11)"/><path class="cls-9" d="M712.53,457.53c-2.17.53-3.65,1.67-5.53,2.87.69,2.42,8.25,21.32,17.76,25.32l.76-13.45S721.31,471.87,712.53,457.53Z" transform="translate(-487.37 -322.11)"/><path class="cls-9" d="M745.8,463.4a15.83,15.83,0,0,1-7.37,11.47l1.29,12.35c5.77-3.71,11.85-17.5,12.74-21.1A9.37,9.37,0,0,0,745.8,463.4Z" transform="translate(-487.37 -322.11)"/><path class="cls-9" d="M723.68,486.48l1.27,11.07s9.12,3.45,15.87,0V486.33" transform="translate(-487.37 -322.11)"/><path class="cls-11" d="M745.11,483.3a4.92,4.92,0,0,0-.9-1.71,18.43,18.43,0,0,0-2.08-2.06,1.42,1.42,0,0,1-.42-.55c-.31-.94.79-2.38.64-3.53-.23-1.7-1.31-2.27-2.37-3.39a3.79,3.79,0,0,1-1.07-2.12,18.36,18.36,0,0,1-1.4-3.84c-.77-2.17-2-4.57-4.33-5.36a7.19,7.19,0,0,0-7.41,1.9c-1.6,1.83-1.29,4.32-1.47,6.61a2.25,2.25,0,0,1,.21.66c.31,2.22-2.61,2.32-2.88,4.08a3.21,3.21,0,0,0,.05,1,7.58,7.58,0,0,0,1.58,3.44c2,2.7-2.65,4.09-2.63,6.59a5.13,5.13,0,0,0,2.85,4.28,18.82,18.82,0,0,0,12.74,1.45C739.42,490,746.21,487.36,745.11,483.3Zm-17.8-4.12V479h.18Z" transform="translate(-487.37 -322.11)"/><polygon class="cls-11" points="244.2 193.12 234.06 190.86 243.7 198.38 244.2 193.12"/><path class="cls-11" d="M707.63,453.06a33.07,33.07,0,0,1-2-4.87c-.08-.26-.5-.15-.41.11a33.77,33.77,0,0,0,2,5A.24.24,0,0,0,707.63,453.06Z" transform="translate(-487.37 -322.11)"/><path class="cls-11" d="M706,454.06A19.5,19.5,0,0,1,705,452c-.11-.25-.48,0-.37.22a19.52,19.52,0,0,0,1.06,2.09.22.22,0,0,0,.37-.22Z" transform="translate(-487.37 -322.11)"/><path class="cls-11" d="M704.5,455.17a6.26,6.26,0,0,1-1-1.9c-.08-.26-.5-.15-.41.11a6.59,6.59,0,0,0,1,2C704.31,455.61,704.67,455.39,704.5,455.17Z" transform="translate(-487.37 -322.11)"/><path class="cls-11" d="M710.86,453.92q-.62-1.26-1.14-2.57c-.1-.25-.52-.14-.41.11q.54,1.36,1.18,2.67C710.61,454.39,711,454.17,710.86,453.92Z" transform="translate(-487.37 -322.11)"/><path class="cls-19" d="M615.71,376.77a.62.62,0,0,0,.09-.34,4.29,4.29,0,0,0-1.35-3.16,1.48,1.48,0,0,0-2.31.42c-.94,1.93,1.21,3.86,2.93,4.09.48.06.67-.34.59-.72A.66.66,0,0,0,615.71,376.77Z" transform="translate(-487.37 -322.11)"/><polygon class="cls-20" points="126.63 88.02 123.17 86.09 126.05 93.97 126.63 88.02"/><path class="cls-13" d="M652.6,486.87l-11.4,6.75,8.46,4.91c2.39-1.39,9.23-5.43,11.43-6.73Z" transform="translate(-487.37 -322.11)"/><path class="cls-13" d="M640.11,479.63l-11.4,6.75,10.71,6.22c1.87-1.08,8.78-5.16,11.44-6.73Z" transform="translate(-487.37 -322.11)"/><path class="cls-13" d="M594.75,453.29l-11.58,6.65,10.3,6c1.63-.94,8.62-5.07,11.44-6.73Z" transform="translate(-487.37 -322.11)"/><path class="cls-13" d="M619.14,467.45l-11.4,6.75,8.46,4.91c2-1.16,8.87-5.22,11.44-6.73Z" transform="translate(-487.37 -322.11)"/><path class="cls-13" d="M606.65,460.2l-11.4,6.75L606,473.17c1.26-.72,8.43-5,11.44-6.73Z" transform="translate(-487.37 -322.11)"/><path class="cls-13" d="M662.83,492.87l-11.4,6.75,8.09,4.7c2.43-1.42,9.28-5.46,11.43-6.73Z" transform="translate(-487.37 -322.11)"/><path class="cls-13" d="M629.37,473.39,618,480.14l9,5.2c2.11-1.22,9-5.27,11.44-6.73Z" transform="translate(-487.37 -322.11)"/><path class="cls-13" d="M672.7,498.55l-11.39,6.76L672,511.53c2.24-1.3,9.08-5.34,11.43-6.73Z" transform="translate(-487.37 -322.11)"/><polygon class="cls-13" points="197.82 183.7 186.43 190.45 205.65 201.61 217.22 194.96 197.82 183.7"/><path class="cls-13" d="M581.7,461.87l-11.58,6.65,15,8.69c2-1.14,8.84-5.2,11.44-6.73Z" transform="translate(-487.37 -322.11)"/><path class="cls-13" d="M610.75,478.78l-11.44,6.75,8.46,4.91c2.26-1.32,9.1-5.35,11.43-6.73Z" transform="translate(-487.37 -322.11)"/><path class="cls-13" d="M631.72,491l-11.41,6.75L631,503.93c2.15-1.25,9-5.29,11.44-6.73Z" transform="translate(-487.37 -322.11)"/><path class="cls-13" d="M621,484.72l-11.4,6.75,9,5.2c2.35-1.37,9.19-5.41,11.43-6.73Z" transform="translate(-487.37 -322.11)"/><path class="cls-13" d="M644.21,498.21,632.81,505l8.5,4.91,11.43-6.73Z" transform="translate(-487.37 -322.11)"/><path class="cls-13" d="M654.45,504.15,643,510.87l8.09,4.7c2.66-1.55,9.56-5.62,11.43-6.73Z" transform="translate(-487.37 -322.11)"/><path class="cls-13" d="M598.31,471.53l-11.4,6.75,10.71,6.22,11.44-6.73Z" transform="translate(-487.37 -322.11)"/><path class="cls-13" d="M664.31,509.87l-11.4,6.75,10.72,6.25c2.48-1.44,9.32-5.49,11.43-6.73Z" transform="translate(-487.37 -322.11)"/><polygon class="cls-13" points="178.04 201.78 192.59 210.23 204.17 203.58 189.43 195.03 178.04 201.78"/><polygon class="cls-13" points="169.52 200.62 161.04 205.66 170.87 211.35 179.48 206.41 169.52 200.62"/><polygon class="cls-13" points="172.9 212.53 181.26 217.37 189.88 212.45 181.37 207.5 172.9 212.53"/><polygon class="cls-13" points="80.04 148.66 71.17 153.59 81.24 159.42 89.95 154.42 80.04 148.66"/><polygon class="cls-13" points="91.83 155.51 83.27 160.59 94.02 166.82 102.72 161.83 91.83 155.51"/><polygon class="cls-13" points="104.61 162.93 96.06 168 158.99 204.47 167.62 199.52 104.61 162.93"/><ellipse class="cls-21" cx="634.07" cy="362.11" rx="10.68" ry="17.5" transform="translate(-497.35 -304.04) rotate(-1.62)"/><ellipse class="cls-22" cx="631.76" cy="359.14" rx="16.1" ry="10.72" transform="translate(-269.93 634.06) rotate(-84.86)"/><ellipse class="cls-13" cx="631.58" cy="357.35" rx="4.67" ry="4.22" transform="translate(-270.26 630.9) rotate(-84.67)"/><path class="cls-13" d="M622.42,367.6s2.5-5.53,6.94-4.83,7.26,3,9.09,9.25a8.81,8.81,0,0,1-9.94,3.42A10.6,10.6,0,0,1,622.42,367.6Z" transform="translate(-487.37 -322.11)"/><path class="cls-19" d="M645.52,364.08a.89.89,0,0,0-.09-.18,1.29,1.29,0,0,0,.4-1,.91.91,0,0,0-.36-.63.67.67,0,0,0-.64-1.1c-1,.19-1.62,1.47-2.14,2.23-.39.56-.75,1.14-1.09,1.72-.06-.84-.18-1.69-.24-2.48s-1.29-.84-1.29,0a12,12,0,0,1-.39,3.76,1.21,1.21,0,0,0-.34.25,30.7,30.7,0,0,1-13.2,8.16,1.21,1.21,0,0,0,.13,2.33,1.19,1.19,0,0,0,.86,1.06,1.35,1.35,0,0,0,.64.9l-.85.37c-1.38.58-.77,2.86.63,2.28A33.81,33.81,0,0,0,641,371.57c.41-.39.81-.78,1.21-1.19.62-.63,3.62-3.64,2.88-4.93C645.31,365,645.74,364.66,645.52,364.08Z" transform="translate(-487.37 -322.11)"/><path class="cls-19" d="M624.72,350.06c-1.41.56-2.5,3.6-2.38,4.24l1.11-.56.2-.22A13.35,13.35,0,0,1,624.72,350.06Z" transform="translate(-487.37 -322.11)"/><path class="cls-19" d="M624.91,352.53a.82.82,0,0,0-.25-.12l-.09-.08c-.55-.43-1.4.13-1.9.4a10.55,10.55,0,0,0-1.8,1.2,3.16,3.16,0,0,0-.53,1.16c-.21.5-.42,1-.66,1.49a27.59,27.59,0,0,1-1.65,3,28.31,28.31,0,0,1-4.2,5.13c-.74.72.39,1.84,1.13,1.12l.53-.53a.68.68,0,0,0,.75,0,3,3,0,0,0,.37-.3l.17-.14a.79.79,0,0,0,1.29.28l.54-.57a.7.7,0,0,0,.39-.36s.08,1.09.1,1.06c.87-.92,1.9-3.47,2.77-5a.32.32,0,0,1,.05-.2,5.15,5.15,0,0,0,.67-3,11.75,11.75,0,0,1,.19-2.14l1.42-1.1c.34-.26.71-.65.64-1A.82.82,0,0,0,624.91,352.53Z" transform="translate(-487.37 -322.11)"/><path class="cls-1" d="M630.2,372.57c-5.05,1.48-5.92.92-8.31.84S617,370,617,370s-.6-7.49-5.07-1.63c-3.33,4.38-4.61,17.06-5,23.2a12.31,12.31,0,0,0,5.94,2.12A25.49,25.49,0,0,0,617,394a6.17,6.17,0,0,0,2.48-.54l2.37-11a17,17,0,0,0,10.7-3.07Z" transform="translate(-487.37 -322.11)"/><path class="cls-19" d="M619.31,363.56s3.25,6.24,0,8-5.73-1.15-6-1.9a5.18,5.18,0,0,1,6-6.1Z" transform="translate(-487.37 -322.11)"/><path class="cls-11" d="M619.59,362.63a6.74,6.74,0,0,0-5.58-.76,8.18,8.18,0,0,0-4.32,2.27,2.77,2.77,0,0,0-1.4-.47,2.88,2.88,0,0,0-2.88,1.78,2.49,2.49,0,0,0,1,2.93,3.14,3.14,0,0,0,2.38.22v.15c.11,1.18-1,1.77-1.44,2.77a2.33,2.33,0,0,0-.17,1.46c.11.49.62,1,.61,1.52a2.35,2.35,0,0,1-.52,1,5.2,5.2,0,0,0-.56,1.09,11.75,11.75,0,0,0,7.8.73,13.12,13.12,0,0,0,7.29-3.93,1.94,1.94,0,0,0-.49-.67,7.25,7.25,0,0,0-1.39-.73c-.69-.4,0-1.61,0-2.26,0-1.12-.86-1.59-1.79-2-.67-.28-.7-.69-.71-1.37a2.58,2.58,0,0,1,.32-1.56.87.87,0,0,0,.58-.12,4.79,4.79,0,0,1,1.11-.49.79.79,0,0,0,.48-1A.65.65,0,0,0,619.59,362.63Z" transform="translate(-487.37 -322.11)"/><path class="cls-11" d="M617.13,365.12a12.57,12.57,0,0,0,3-1.07c0-.1.31-4-6.58-2.64s-3.62,9.59-3.62,9.59" transform="translate(-487.37 -322.11)"/><path class="cls-23" d="M682.46,373.95l48.22,28.38a3.2,3.2,0,0,1,1.56,2.88l-1.67,43.91a3.14,3.14,0,0,1-4.71,2.64l-46.55-27.14a3.2,3.2,0,0,1-1.58-2.77V376.71a3.15,3.15,0,0,1,4.73-2.76Z" transform="translate(-487.37 -322.11)"/><path class="cls-7" d="M712.19,361.58c-1.93-.89-6.51-3.91-12.29-1.13s-11.26,7.92-5.29,23.06a8.6,8.6,0,0,0,6,.06s-1.23-13.25.63-14.79l19.42,10.79a13,13,0,0,1-6.77,12.54l5.35,4.91c4.38-.07,14-14,11-23.9s-19.38-12-19.38-12" transform="translate(-487.37 -322.11)"/><path class="cls-24" d="M712.19,361.58c-1.93-.89-6.51-3.91-12.29-1.13s-11.26,7.92-5.29,23.06a8.6,8.6,0,0,0,6,.06s-1.23-13.25.63-14.79l19.42,10.79a13,13,0,0,1-6.77,12.54l5.35,4.91c4.38-.07,14-14,11-23.9s-19.38-12-19.38-12" transform="translate(-487.37 -322.11)"/><path class="cls-25" d="M718.38,360.76c-1.32,1.46-3.85.8-5.52.42-2-.46-4.35-1.69-4.17-4.1a.29.29,0,0,0-.57,0c-.19,2.51,2.1,4,4.27,4.57,1.93.48,4.85,1.21,6.39-.49C719,360.87,718.62,360.49,718.38,360.76Z" transform="translate(-487.37 -322.11)"/><path class="cls-19" d="M707.58,355.56s0,12.29,4.51,13.09c5,.88,7.74-4.75,7.74-4.75s.64-10.86-4.29-11.81S707.73,354,707.58,355.56Z" transform="translate(-487.37 -322.11)"/><path class="cls-11" d="M711.37,363.87a.85.85,0,0,1-.34,0,34.4,34.4,0,0,1,.46-3.42.32.32,0,0,0-.63-.11,34.4,34.4,0,0,0-.49,3.66.34.34,0,0,0,.18.35,1.61,1.61,0,0,0,.87.22A.33.33,0,0,0,711.37,363.87Z" transform="translate(-487.37 -322.11)"/><path class="cls-11" d="M713.45,364.1a1.8,1.8,0,0,1-2.3,1c-.26-.09-.37.32-.11.41a2.22,2.22,0,0,0,2.78-1.16C713.94,364.07,713.57,363.87,713.45,364.1Z" transform="translate(-487.37 -322.11)"/><path class="cls-11" d="M712.89,362.36a.32.32,0,1,0,.32.32A.32.32,0,0,0,712.89,362.36Z" transform="translate(-487.37 -322.11)"/><path class="cls-11" d="M708.92,361.5a.32.32,0,1,0,.32.32A.32.32,0,0,0,708.92,361.5Z" transform="translate(-487.37 -322.11)"/><path class="cls-19" d="M716.31,362.68s1.19-4.72,2.51-3.16-2.14,5-2.14,5" transform="translate(-487.37 -322.11)"/><path class="cls-26" d="M717.54,350.56s4.4.47,5.68,4-2,10.47-4.37,11.56l2.86-6.12-.14-4.13Z" transform="translate(-487.37 -322.11)"/><path class="cls-26" d="M723.15,356.11c-.36-2.45-2-3.64-4.11-4.9l-.53-.28a3.52,3.52,0,0,0,1-1.24.32.32,0,0,0-.28-.48,2,2,0,0,0-1.45.71,4.77,4.77,0,0,0-1-1.35.33.33,0,0,0-.54.14,1.74,1.74,0,0,0,.08,1.48,9.35,9.35,0,0,0-6.49,1,5.38,5.38,0,0,0-1.82,1.68,3.21,3.21,0,0,0-1.75.31,2.94,2.94,0,0,0-1.66,3.14,2.61,2.61,0,0,0,3.22,1.73,4.08,4.08,0,0,0,1.86-.87c-.4.67-.6,1.53.7,1.83,2.26.52,3.33-.83,3.47.3.12.92,1.39,1.43,2.3,1.45.07.14.24.51.44,1a2.72,2.72,0,0,1,1.41-.08.34.34,0,0,1,.48,0l.07.09c.78,1.34.6,2.8.3,4.35a12.39,12.39,0,0,0,3-3.75A11.06,11.06,0,0,0,723.15,356.11Zm-6.4-6.59.09.14a.32.32,0,0,0,0,.1,1,1,0,0,0,.12.31A1.18,1.18,0,0,1,716.75,349.52Z" transform="translate(-487.37 -322.11)"/><path class="cls-27" d="M741.08,414.87l28.69,16.73a1.76,1.76,0,0,1,.87,1.52h0a1.76,1.76,0,0,1-2.65,1.52L739.31,418a1.76,1.76,0,0,1-.88-1.52v-.1a1.76,1.76,0,0,1,2.65-1.52Z" transform="translate(-487.37 -322.11)"/><path class="cls-27" d="M741.08,423.87l28.69,16.73a1.76,1.76,0,0,1,.87,1.52h0a1.76,1.76,0,0,1-2.65,1.52l-28.68-16.58a1.76,1.76,0,0,1-.88-1.52v-.1a1.76,1.76,0,0,1,2.65-1.57Z" transform="translate(-487.37 -322.11)"/><path class="cls-27" d="M741.08,433l28.69,16.73a1.76,1.76,0,0,1,.87,1.52h0a1.76,1.76,0,0,1-2.65,1.52L739.31,436.1a1.76,1.76,0,0,1-.88-1.52v-.1a1.76,1.76,0,0,1,2.65-1.52Z" transform="translate(-487.37 -322.11)"/><path class="cls-28" d="M741.08,442l28.69,16.73a1.76,1.76,0,0,1,.87,1.52h0a1.76,1.76,0,0,1-2.65,1.52l-28.68-16.62a1.76,1.76,0,0,1-.88-1.52v-.1a1.76,1.76,0,0,1,2.65-1.53Z" transform="translate(-487.37 -322.11)"/><polygon class="cls-22" points="181.69 61.48 181.69 90.44 159.28 77.6 159.28 48.89 181.69 61.48"/><polygon class="cls-22" points="161.87 77.6 161.87 84.68 167.58 79.71 161.87 77.6"/><path class="cls-13" d="M655.49,386.52l-5,3.08a.68.68,0,0,0-.24.93l3.9,5.31c.51.7,1.69,0,1.17-.68l-3.95-5.29-.24.93,5-3.08c.74-.45.06-1.63-.68-1.17Z" transform="translate(-487.37 -322.11)"/><path class="cls-13" d="M658.88,389.26l4.15,5.87.24-.93-5.08,2.54c-.78.39-.09,1.56.68,1.17l5.08-2.54a.68.68,0,0,0,.24-.93L660,388.57c-.5-.71-1.68,0-1.17.68Z" transform="translate(-487.37 -322.11)"/><ellipse class="cls-29" cx="282.31" cy="97.69" rx="1.61" ry="1.75"/><ellipse class="cls-30" cx="277.17" cy="95.06" rx="1.61" ry="1.75"/><ellipse class="cls-31" cx="272.03" cy="92.51" rx="1.61" ry="1.75"/><polyline class="cls-32" points="112.41 115.16 147.63 135.13 160.47 128.53"/><line class="cls-32" x1="147.52" y1="135.42" x2="147.52" y2="143.49"/><path class="cls-19" d="M609.61,450.87a4.27,4.27,0,0,1-2-.95,3.7,3.7,0,0,1-.42-2.16v-2.09a.35.35,0,0,1-.13-.26,12.55,12.55,0,0,1,0-1.7l-2.86-.28a51.65,51.65,0,0,0-1.19,5.45c.08.56,2.8,4.28,4.19,4.53s5.23-1,5.55-1.49h0C611.71,451.61,610.65,451.28,609.61,450.87Z" transform="translate(-487.37 -322.11)"/><path class="cls-19" d="M629.39,440.71a28.62,28.62,0,0,0-4.85.45s-.55-3.19-.47-3.35l-4.07.28s-.51,5.92-.51,6.7c0,1.43,1.78,1.89,2.17,1.83a7,7,0,0,0,.82-.34,11.82,11.82,0,0,1-.23-2.24.65.65,0,0,1,.42-.71,5.39,5.39,0,0,1,2.33.21c.73.14,1.45.31,2.18.44a10.76,10.76,0,0,0,3.07-2C630.51,441.19,630.84,441,629.39,440.71Z" transform="translate(-487.37 -322.11)"/><path class="cls-11" d="M630.75,441l-.1-.11c-.31-.3-1.13-.27-1.51-.29a19.22,19.22,0,0,0-4.6.59s3.69-.5,3.83.16a1.76,1.76,0,0,1-.37,1.52c-1.54,1.37-3.95-.14-5.45-.79l-2.79-1.2-.18,2.27a16.83,16.83,0,0,0,0,3.12c.19.32,1.84,1.19,2.19,1s1.43-.83,1.43-.83l-.22-2.74s2.3,1,3.39.72C627.2,444.19,631.71,442.25,630.75,441Z" transform="translate(-487.37 -322.11)"/><path class="cls-11" d="M605.66,449s1.5,4.68,2,5,6.3-1.53,5.44-2.63c-.55-.7-4-.69-4.33-.78,0,0,1.83.6,1.83.89a4.75,4.75,0,0,1-2.42,1.14c-.12-.22-2.62-4.32-2.62-4.32l-2.35-.83-1.9,4.29,1.64.7s.5,1.31.67,1.31a19,19,0,0,0,1.51-2.41,6.36,6.36,0,0,0,.57,1.71c.23.17,2.14,1.74,3,.54l-1.61-1.81" transform="translate(-487.37 -322.11)"/><polyline class="cls-11" points="113.94 129.65 114.24 130.72 116.25 131.66 116.25 129.65 115.09 129.25"/><path class="cls-16" d="M617.62,439.7a11.73,11.73,0,0,0,10.17-2.41c.06-6,.62-11.47.44-17.49-.29-9.83-1.72-19.48-8.62-27.15L607,390.72c-5.1,9.7-6.14,54.07-6.14,54.07s6.4,4.08,11.27,2.08l1.89-37s3.33,3.94,3.93,6.14C618.44,417.67,617.54,432.27,617.62,439.7Z" transform="translate(-487.37 -322.11)"/><ellipse class="cls-7" cx="77.09" cy="93.62" rx="22.17" ry="10.96"/><ellipse class="cls-4" cx="77.09" cy="93.62" rx="22.17" ry="10.96"/><path class="cls-33" d="M798.08,521.26l-17.92,10.61s5.55,9.74,19.24,15.49l20.91-11.21" transform="translate(-487.37 -322.11)"/><ellipse class="cls-4" cx="325.66" cy="203.17" rx="16.62" ry="11.71"/><ellipse class="cls-15" cx="325.65" cy="196.26" rx="12.45" ry="5.1"/><path class="cls-16" d="M812.56,509.87c0-2.3-.08-4.6-.26-6.89q-.07-.89-.16-1.78L812,500c0-.34-.18-1.23-.18-1.19l-.24-1.4a54.89,54.89,0,0,0-8.89-21.74,31.79,31.79,0,0,0-2.47,12.73c0,1.26.1,2.52.21,3.78v.53c0,.05,0-.08,0,.21.1.62.22,1.24.34,1.85a50.24,50.24,0,0,0,2,6.9,42,42,0,0,0,2.69,6q1.7,3.25,3.68,6.35c1,1.61,2,3.06,3,4.43C812.42,515.62,812.56,512.74,812.56,509.87ZM806,484a2.07,2.07,0,0,0-.06-.89h0q.48.49.93,1A2.85,2.85,0,0,0,806,484Z" transform="translate(-487.37 -322.11)"/><path class="cls-16" d="M816.85,511.64q1.88-2.89,3.51-5.94l.83-1.59.52-1.06.49-1.1q.28-.65.55-1.31A54.89,54.89,0,0,0,827,477.55a31.79,31.79,0,0,0-9,9.37c-.67,1.07-1.28,2.17-1.87,3.29l-.25.47s0-.06-.07.21c-.25.58-.49,1.16-.71,1.74A50.24,50.24,0,0,0,813,499.5a42,42,0,0,0-1,6.51c-.23,2.44-.33,4.89-.34,7.33,0,1.91,0,3.66.12,5.34A85.79,85.79,0,0,0,816.85,511.64Zm8.46-25.28a2.07,2.07,0,0,0,.43-.78h0q.14.67.24,1.35A2.85,2.85,0,0,0,825.31,486.36Z" transform="translate(-487.37 -322.11)"/><path class="cls-16" d="M816.76,517.37q1.94-1,3.81-2.07l1-.59.62-.4.62-.43.72-.53a34.52,34.52,0,0,0,9.76-11.08,20,20,0,0,0-7.86,2.17c-.71.36-1.39.76-2.07,1.17l-.29.17-.1.09-1,.71a31.6,31.6,0,0,0-3.34,3,26.38,26.38,0,0,0-2.64,3.19c-.91,1.24-1.76,2.53-2.55,3.85-.62,1-1.16,2-1.66,2.92C813.48,518.87,815.13,518.18,816.76,517.37Zm12.73-10.91a1.3,1.3,0,0,0,.49-.28h0q-.14.41-.3.81a1.79,1.79,0,0,0-.19-.53Z" transform="translate(-487.37 -322.11)"/><path class="cls-16" d="M812.56,509.87c0-2.3-.08-4.6-.26-6.89q-.07-.89-.16-1.78L812,500c0-.34-.18-1.23-.18-1.19l-.24-1.4a54.89,54.89,0,0,0-8.89-21.74,31.79,31.79,0,0,0-2.47,12.73c0,1.26.1,2.52.21,3.78v.53c0,.05,0-.08,0,.21.1.62.22,1.24.34,1.85a50.24,50.24,0,0,0,2,6.9,42,42,0,0,0,2.69,6q1.7,3.25,3.68,6.35c1,1.61,2,3.06,3,4.43C812.42,515.62,812.56,512.74,812.56,509.87ZM806,484a2.07,2.07,0,0,0-.06-.89h0q.48.49.93,1A2.85,2.85,0,0,0,806,484Z" transform="translate(-487.37 -322.11)"/><path class="cls-16" d="M816.85,511.64q1.88-2.89,3.51-5.94l.83-1.59.52-1.06.49-1.1q.28-.65.55-1.31A54.89,54.89,0,0,0,827,477.55a31.79,31.79,0,0,0-9,9.37c-.67,1.07-1.28,2.17-1.87,3.29l-.25.47s0-.06-.07.21c-.25.58-.49,1.16-.71,1.74A50.24,50.24,0,0,0,813,499.5a42,42,0,0,0-1,6.51c-.23,2.44-.33,4.89-.34,7.33,0,1.91,0,3.66.12,5.34A85.79,85.79,0,0,0,816.85,511.64Zm8.46-25.28a2.07,2.07,0,0,0,.43-.78h0q.14.67.24,1.35A2.85,2.85,0,0,0,825.31,486.36Z" transform="translate(-487.37 -322.11)"/><path class="cls-16" d="M816.76,517.37q1.94-1,3.81-2.07l1-.59.62-.4.62-.43.72-.53a34.52,34.52,0,0,0,9.76-11.08,20,20,0,0,0-7.86,2.17c-.71.36-1.39.76-2.07,1.17l-.29.17-.1.09-1,.71a31.6,31.6,0,0,0-3.34,3,26.38,26.38,0,0,0-2.64,3.19c-.91,1.24-1.76,2.53-2.55,3.85-.62,1-1.16,2-1.66,2.92C813.48,518.87,815.13,518.18,816.76,517.37Zm12.73-10.91a1.3,1.3,0,0,0,.49-.28h0q-.14.41-.3.81a1.79,1.79,0,0,0-.19-.53Z" transform="translate(-487.37 -322.11)"/></svg>