<svg width="78" height="98" viewBox="0 0 78 98" fill="none" xmlns="http://www.w3.org/2000/svg">
<path d="M54.7669 56.3639L66.4428 54.385C69.0373 49.4168 71.3495 44.3061 73.3684 39.0775L68.0803 38.2827L74.0584 37.2695C76.4906 30.7793 77.6904 26.3274 77.6904 26.3274C77.6904 26.3274 53.9851 30.5612 35.2064 41.9348L31.3835 56.6427L30.6464 44.9178C28.5783 46.3729 26.6037 47.9566 24.7344 49.6595C5.94489 66.892 -3.65898 86.9984 3.28363 94.5683C10.2262 102.138 31.0863 94.3051 49.8758 77.0725C55.7008 71.7303 60.5864 64.8233 64.5565 57.8353L54.7669 56.3639Z" fill="#BABABA"/>
<path d="M33.4064 37.5619L42.3786 29.8325C42.0315 24.2384 41.3692 18.6683 40.3947 13.1487L35.4571 15.2017L40.0508 11.2443C38.7782 4.43121 37.504 0 37.504 0C37.504 0 19.3997 15.8777 9.20332 35.3207L13.5333 49.8874L6.84172 40.2313C5.82343 42.546 4.95173 44.9223 4.23179 47.3464C-2.94539 71.8106 -0.773743 93.9867 9.08234 96.8783C18.9384 99.7698 32.7466 82.2817 39.9238 57.8176C42.1488 50.2334 42.7609 41.7954 42.5473 33.7612L33.4064 37.5619Z" fill="#D2D2D2"/>
</svg>
