<svg id="Lager_1" data-name="Lager 1" xmlns="http://www.w3.org/2000/svg" viewBox="0 0 670.25 822.29"><defs><style>.cls-1{fill:#e1edea;}</style></defs><title>logo</title><g id="g2674"><path id="path2776" class="cls-1" d="M814.31,811.19l-18.19.71A143.2,143.2,0,0,0,634.66,973.36l2.92,21.11a98.65,98.65,0,0,1,0-151.1,174.54,174.54,0,0,1,142.61-38.21Zm39,40.83,89.76-12c-51.65-83.67-192-117.74-289.49-67.88a211.89,211.89,0,0,1,212.21-23.23,125.47,125.47,0,0,1,91.23-158L874,563.44l-2.66-.86-36,76.17,15.05-82.15a331.77,331.77,0,0,0-157.86-.7L701,620.44l-24.12-60.36a331.62,331.62,0,0,0-127.51,70.69l16.26,26.31-27.38-15.94a331.87,331.87,0,0,0-72.94,106.22l78.94,46.1-86.81-26A331.48,331.48,0,0,0,445.19,811a327.24,327.24,0,0,0-.65,129.88l56.92-8-55,17.58a368,368,0,0,1,3.21,117.14l35.52-8.67-37.81,23.54a368.14,368.14,0,0,1-87.92,181.6l56.52-33A343,343,0,0,0,574,1025c-38.79-63.3-37.13-138.89,10.5-190.18q-3.67,5.83-7,12.08c-26.47,50.26-26.47,113.06,0,163.32,17.56,33.34,22.48,73.37,13.65,110.92s-30.66,69.41-60.5,88.28c53-14.35,97-20.29,134.89-20.07l-.11,0,35.63-2.79a226.71,226.71,0,0,1,146,39.13,191.11,191.11,0,0,0,123.1,33c-34.79,9.12-79.17,5.29-129.71-24.2-24.35-14.21-39.47-20.57-60.47-21,87.35,39.71,139.73,118.1,249.67,155.49-37.56-144.59-64.62-227.94-75.31-377.11l-71-25c-25.92-9.13-46.22-32.26-54.23-61.8l126.68,38.68L863.7,893.11l103.19,40.13c3.5,45.47,13.53,137.91,41.94,172.69l19.19-15.43a288.45,288.45,0,0,1-34.45-128.58l-3.05-105.34Z" transform="translate(-359.45 -546.73)"/></g></svg>