 <svg
            width="189"
            height="294"
            viewBox="0 0 189 294"
            fill="none"
            xmlns="http://www.w3.org/2000/svg"
          >
            <g clip-path="url(#clip0)">
              <path
                opacity="0.3"
                d="M178.673 49.2651C184.377 49.2651 189 44.6445 189 38.9447C189 33.245 184.377 28.6244 178.673 28.6244C172.97 28.6244 168.346 33.245 168.346 38.9447C168.346 44.6445 172.97 49.2651 178.673 49.2651Z"
                fill="#CCCCCC"
              />
              <path
                d="M178.673 44.7864C181.901 44.7864 184.519 42.171 184.519 38.9447C184.519 35.7184 181.901 33.103 178.673 33.103C175.445 33.103 172.828 35.7184 172.828 38.9447C172.828 42.171 175.445 44.7864 178.673 44.7864Z"
                fill="#4AB775"
              />
              <path
                opacity="0.3"
                d="M171.854 20.6407C177.557 20.6407 182.18 16.0201 182.18 10.3203C182.18 4.62058 177.557 0 171.854 0C166.15 0 161.527 4.62058 161.527 10.3203C161.527 16.0201 166.15 20.6407 171.854 20.6407Z"
                fill="#CCCCCC"
              />
              <path
                d="M171.854 16.1621C175.082 16.1621 177.699 13.5466 177.699 10.3203C177.699 7.09406 175.082 4.47864 171.854 4.47864C168.625 4.47864 166.008 7.09406 166.008 10.3203C166.008 13.5466 168.625 16.1621 171.854 16.1621Z"
                fill="#4AB775"
              />
              <path
                opacity="0.3"
                d="M10.3268 59.5854C16.0301 59.5854 20.6536 54.9649 20.6536 49.2651C20.6536 43.5653 16.0301 38.9447 10.3268 38.9447C4.62347 38.9447 0 43.5653 0 49.2651C0 54.9649 4.62347 59.5854 10.3268 59.5854Z"
                fill="#CCCCCC"
              />
              <path
                d="M10.3268 55.1068C13.5551 55.1068 16.1722 52.4914 16.1722 49.2651C16.1722 46.0388 13.5551 43.4234 10.3268 43.4234C7.0985 43.4234 4.48145 46.0388 4.48145 49.2651C4.48145 52.4914 7.0985 55.1068 10.3268 55.1068Z"
                fill="#4AB775"
              />
              <path
                opacity="0.3"
                d="M19.4845 139.812C25.1879 139.812 29.8114 135.191 29.8114 129.491C29.8114 123.791 25.1879 119.171 19.4845 119.171C13.7812 119.171 9.15775 123.791 9.15775 129.491C9.15775 135.191 13.7812 139.812 19.4845 139.812Z"
                fill="#CCCCCC"
              />
              <path
                d="M19.4845 135.333C22.7128 135.333 25.3299 132.718 25.3299 129.491C25.3299 126.265 22.7128 123.649 19.4845 123.649C16.2562 123.649 13.6392 126.265 13.6392 129.491C13.6392 132.718 16.2562 135.333 19.4845 135.333Z"
                fill="#4AB775"
              />
              <path
                opacity="0.3"
                d="M33.5134 29.7927C39.2167 29.7927 43.8402 25.1721 43.8402 19.4724C43.8402 13.7726 39.2167 9.15201 33.5134 9.15201C27.8101 9.15201 23.1866 13.7726 23.1866 19.4724C23.1866 25.1721 27.8101 29.7927 33.5134 29.7927Z"
                fill="#CCCCCC"
              />
              <path
                d="M33.5134 25.3141C36.7417 25.3141 39.3587 22.6987 39.3587 19.4724C39.3587 16.2461 36.7417 13.6307 33.5134 13.6307C30.2851 13.6307 27.668 16.2461 27.668 19.4724C27.668 22.6987 30.2851 25.3141 33.5134 25.3141Z"
                fill="#4AB775"
              />
              <path
                d="M169.126 83.9259C169.126 118.653 144.203 147.564 111.257 153.767C111.128 153.793 110.998 153.816 110.867 153.839C108.819 154.215 106.741 154.5 104.632 154.694C104.501 154.708 104.373 154.72 104.242 154.729C102.189 154.908 100.11 154.999 98.0072 155C97.8767 155 97.7481 155 97.6175 154.998C95.5171 154.988 93.4388 154.887 91.3825 154.694C91.252 154.685 91.1233 154.671 90.9928 154.657C88.8865 154.453 86.8082 154.156 84.7577 153.767C84.6272 153.744 84.4966 153.719 84.3681 153.693C51.6145 147.336 26.8887 118.517 26.8887 83.9259C26.8887 44.6735 58.7303 12.8518 98.0072 12.8518C137.284 12.8518 169.126 44.6735 169.126 83.9259Z"
                fill="#EDEDED"
              />
              <path
                d="M111.452 53.4516H111.062V111.187H111.452V53.4516Z"
                fill="#4AB775"
              />
              <path
                d="M111.452 28.7027H111.062V45.7355H111.452V28.7027Z"
                fill="#4AB775"
              />
              <path
                d="M84.7577 26.9254H84.368V111.187H84.7577V26.9254Z"
                fill="#4AB775"
              />
              <path
                d="M91.3825 19.4724H90.9928V38.4495H91.3825V19.4724Z"
                fill="#4AB775"
              />
              <path
                d="M91.3825 47.5126H90.9928V105.275H91.3825V47.5126Z"
                fill="#4AB775"
              />
              <path
                d="M91.3825 114.254V154.694C91.252 154.685 91.1233 154.671 90.9928 154.657V114.254H91.3825Z"
                fill="#4AB775"
              />
              <path
                d="M98.0072 13.2412H97.6175V66.8577H98.0072V13.2412Z"
                fill="#4AB775"
              />
              <path
                d="M98.0072 74.291V155C97.8767 155 97.7481 155 97.6175 154.998V74.291H98.0072Z"
                fill="#4AB775"
              />
              <path
                d="M104.632 19.4724H104.242V93.8568H104.632V19.4724Z"
                fill="#4AB775"
              />
              <path
                d="M104.632 101.84H104.242V143.545H104.632V101.84Z"
                fill="#4AB775"
              />
              <path
                d="M104.632 152.377V154.694C104.501 154.708 104.373 154.72 104.242 154.729V152.377H104.632Z"
                fill="#4AB775"
              />
              <path
                d="M111.257 121.313V153.767C111.128 153.793 110.998 153.816 110.867 153.839V121.313H111.257Z"
                fill="#4AB775"
              />
              <path
                d="M84.7577 121.313V153.767C84.6272 153.744 84.4966 153.719 84.368 153.693V121.313H84.7577Z"
                fill="#4AB775"
              />
              <path
                d="M78.133 34.4661H77.7433V46.6187H78.133V34.4661Z"
                fill="#4AB775"
              />
              <path
                d="M78.133 55.7446H77.7433V111.187H78.133V55.7446Z"
                fill="#4AB775"
              />
              <path
                d="M71.5083 38.9447H71.1186V111.187H71.5083V38.9447Z"
                fill="#4AB775"
              />
              <path
                d="M64.8835 44.7864H64.4938V68.3296H64.8835V44.7864Z"
                fill="#4AB775"
              />
              <path
                d="M64.8835 76.1308H64.4938V111.187H64.8835V76.1308Z"
                fill="#4AB775"
              />
              <path
                d="M58.2588 51.0176H57.8691V90.2613H58.2588V51.0176Z"
                fill="#4AB775"
              />
              <path
                d="M58.2588 97.5565H57.8691V111.187H58.2588V97.5565Z"
                fill="#4AB775"
              />
              <path
                d="M51.634 56.8593H51.2443V70.0223H51.634V56.8593Z"
                fill="#4AB775"
              />
              <path
                d="M51.634 78.6331H51.2443V111.187H51.634V78.6331Z"
                fill="#4AB775"
              />
              <path
                d="M45.0093 59.9749H44.6196V111.187H45.0093V59.9749Z"
                fill="#4AB775"
              />
              <path
                d="M38.3845 73.995H37.9948V90.9237H38.3845V73.995Z"
                fill="#4AB775"
              />
              <path
                d="M38.3845 98.6513H37.9948V111.187H38.3845V98.6513Z"
                fill="#4AB775"
              />
              <path
                d="M115.234 34.4661H115.032V107.877H115.234V34.4661Z"
                fill="#4AB775"
              />
              <path
                d="M124.506 38.9447H124.116V50.5193H124.506V38.9447Z"
                fill="#4AB775"
              />
              <path
                d="M124.506 58.2469H124.116V111.187H124.506V58.2469Z"
                fill="#4AB775"
              />
              <path
                d="M131.131 50.044H130.741V56.8593H131.131V50.044Z"
                fill="#4AB775"
              />
              <path
                d="M131.131 64.5026H130.741V98.3569H131.131V64.5026Z"
                fill="#4AB775"
              />
              <path
                d="M131.131 105.275H130.741V111.187H131.131V105.275Z"
                fill="#4AB775"
              />
              <path
                d="M137.756 51.0176H137.366V111.187H137.756V51.0176Z"
                fill="#4AB775"
              />
              <path
                d="M144.38 56.8593H143.991V76.1308H144.38V56.8593Z"
                fill="#4AB775"
              />
              <path
                d="M144.38 83.4168H143.991V111.187H144.38V83.4168Z"
                fill="#4AB775"
              />
              <path
                d="M151.005 59.9749H150.615V111.187H151.005V59.9749Z"
                fill="#4AB775"
              />
              <path
                d="M84.5629 121.508C84.1775 121.508 83.8008 121.393 83.4804 121.179C83.16 120.965 82.9102 120.661 82.7628 120.305C82.6153 119.95 82.5767 119.558 82.6519 119.18C82.7271 118.803 82.9126 118.456 83.1851 118.183C83.4576 117.911 83.8048 117.726 84.1828 117.65C84.5607 117.575 84.9525 117.614 85.3085 117.761C85.6646 117.909 85.9689 118.158 86.183 118.478C86.3971 118.799 86.5113 119.175 86.5113 119.56C86.5107 120.077 86.3053 120.572 85.94 120.937C85.5747 121.302 85.0795 121.507 84.5629 121.508ZM84.5629 118.003C84.2546 118.003 83.9532 118.094 83.6969 118.265C83.4406 118.436 83.2408 118.68 83.1228 118.964C83.0048 119.249 82.9739 119.562 83.0341 119.864C83.0942 120.166 83.2427 120.444 83.4607 120.662C83.6787 120.88 83.9564 121.028 84.2588 121.088C84.5612 121.148 84.8746 121.117 85.1594 121C85.4442 120.882 85.6877 120.682 85.859 120.426C86.0302 120.17 86.1217 119.868 86.1217 119.56C86.1212 119.147 85.9568 118.751 85.6646 118.459C85.3724 118.167 84.9762 118.003 84.5629 118.003Z"
                fill="#4AB775"
              />
              <path
                d="M91.1876 111.382C90.8023 111.382 90.4255 111.268 90.1051 111.054C89.7847 110.84 89.535 110.536 89.3875 110.18C89.24 109.824 89.2014 109.432 89.2766 109.055C89.3518 108.677 89.5374 108.33 89.8099 108.058C90.0824 107.785 90.4295 107.6 90.8075 107.525C91.1855 107.45 91.5772 107.488 91.9333 107.636C92.2893 107.783 92.5936 108.033 92.8077 108.353C93.0218 108.673 93.1361 109.05 93.1361 109.435C93.1355 109.951 92.93 110.446 92.5647 110.811C92.1994 111.176 91.7042 111.381 91.1876 111.382ZM91.1876 107.877C90.8793 107.877 90.578 107.968 90.3216 108.139C90.0653 108.311 89.8655 108.554 89.7475 108.839C89.6295 109.123 89.5987 109.436 89.6588 109.739C89.719 110.041 89.8674 110.318 90.0854 110.536C90.3034 110.754 90.5812 110.902 90.8835 110.963C91.1859 111.023 91.4993 110.992 91.7841 110.874C92.069 110.756 92.3124 110.556 92.4837 110.3C92.655 110.044 92.7464 109.743 92.7464 109.435C92.7459 109.022 92.5815 108.626 92.2893 108.334C91.9971 108.042 91.6009 107.877 91.1876 107.877Z"
                fill="#4AB775"
              />
              <path
                d="M111.257 121.508C110.871 121.508 110.495 121.393 110.174 121.179C109.854 120.965 109.604 120.661 109.457 120.305C109.309 119.95 109.271 119.558 109.346 119.18C109.421 118.803 109.606 118.456 109.879 118.183C110.151 117.911 110.499 117.726 110.877 117.65C111.255 117.575 111.646 117.614 112.002 117.761C112.358 117.909 112.663 118.158 112.877 118.478C113.091 118.799 113.205 119.175 113.205 119.56C113.205 120.077 112.999 120.572 112.634 120.937C112.269 121.302 111.773 121.507 111.257 121.508ZM111.257 118.003C110.948 118.003 110.647 118.094 110.391 118.265C110.134 118.436 109.935 118.68 109.817 118.964C109.699 119.249 109.668 119.562 109.728 119.864C109.788 120.166 109.937 120.444 110.155 120.662C110.372 120.88 110.65 121.028 110.953 121.088C111.255 121.148 111.568 121.117 111.853 121C112.138 120.882 112.381 120.682 112.553 120.426C112.724 120.17 112.815 119.868 112.815 119.56C112.815 119.147 112.651 118.751 112.358 118.459C112.066 118.167 111.67 118.003 111.257 118.003Z"
                fill="#4AB775"
              />
              <path
                d="M104.437 145.848C104.052 145.848 103.675 145.962 103.355 146.176C103.034 146.39 102.784 146.694 102.637 147.05C102.489 147.406 102.451 147.797 102.526 148.175C102.601 148.553 102.787 148.9 103.059 149.172C103.332 149.444 103.679 149.63 104.057 149.705C104.435 149.78 104.827 149.742 105.183 149.594C105.539 149.447 105.843 149.197 106.057 148.877C106.271 148.557 106.386 148.18 106.386 147.795C106.385 147.279 106.179 146.784 105.814 146.419C105.449 146.054 104.954 145.849 104.437 145.848ZM104.437 149.353C104.129 149.353 103.827 149.262 103.571 149.09C103.315 148.919 103.115 148.676 102.997 148.391C102.879 148.107 102.848 147.793 102.908 147.491C102.968 147.189 103.117 146.912 103.335 146.694C103.553 146.476 103.831 146.327 104.133 146.267C104.435 146.207 104.749 146.238 105.034 146.356C105.318 146.474 105.562 146.674 105.733 146.93C105.904 147.186 105.996 147.487 105.996 147.795C105.995 148.208 105.831 148.604 105.539 148.896C105.247 149.188 104.85 149.352 104.437 149.353Z"
                fill="#4AB775"
              />
              <path
                d="M104.437 99.5038C104.052 99.5038 103.675 99.3896 103.355 99.1756C103.034 98.9616 102.784 98.6575 102.637 98.3017C102.489 97.9459 102.451 97.5544 102.526 97.1766C102.601 96.7989 102.787 96.4519 103.059 96.1796C103.332 95.9073 103.679 95.7218 104.057 95.6467C104.435 95.5716 104.827 95.6101 105.183 95.7575C105.539 95.9049 105.843 96.1545 106.057 96.4747C106.271 96.7949 106.386 97.1714 106.386 97.5565C106.385 98.0728 106.179 98.5677 105.814 98.9328C105.449 99.2978 104.954 99.5032 104.437 99.5038ZM104.437 95.9987C104.129 95.9987 103.827 96.0901 103.571 96.2613C103.315 96.4324 103.115 96.6757 102.997 96.9604C102.879 97.245 102.848 97.5583 102.908 97.8604C102.968 98.1626 103.117 98.4402 103.335 98.6581C103.553 98.8759 103.831 99.0243 104.133 99.0844C104.435 99.1445 104.749 99.1136 105.034 98.9957C105.318 98.8778 105.562 98.6782 105.733 98.422C105.904 98.1658 105.996 97.8646 105.996 97.5565C105.995 97.1435 105.831 96.7476 105.539 96.4555C105.247 96.1635 104.85 95.9992 104.437 95.9987Z"
                fill="#4AB775"
              />
              <path
                d="M97.8124 72.4372C97.427 72.4372 97.0503 72.323 96.7298 72.109C96.4094 71.8951 96.1597 71.591 96.0122 71.2351C95.8647 70.8793 95.8261 70.4878 95.9013 70.1101C95.9765 69.7324 96.1621 69.3854 96.4346 69.1131C96.7071 68.8407 97.0543 68.6553 97.4322 68.5801C97.8102 68.505 98.202 68.5436 98.558 68.691C98.914 68.8383 99.2184 69.0879 99.4325 69.4081C99.6466 69.7284 99.7608 70.1048 99.7608 70.49C99.7602 71.0062 99.5548 71.5012 99.1895 71.8662C98.8242 72.2313 98.3289 72.4366 97.8124 72.4372Z"
                fill="#4AB775"
              />
              <path
                d="M111.062 51.2123C110.676 51.2123 110.3 51.0981 109.979 50.8842C109.659 50.6702 109.409 50.3661 109.262 50.0103C109.114 49.6544 109.076 49.2629 109.151 48.8852C109.226 48.5075 109.412 48.1605 109.684 47.8882C109.957 47.6158 110.304 47.4304 110.682 47.3553C111.06 47.2801 111.451 47.3187 111.807 47.4661C112.164 47.6134 112.468 47.863 112.682 48.1833C112.896 48.5035 113.01 48.88 113.01 49.2651C113.01 49.7813 112.804 50.2763 112.439 50.6413C112.074 51.0064 111.578 51.2117 111.062 51.2123ZM111.062 47.7073C110.754 47.7073 110.452 47.7987 110.196 47.9698C109.94 48.141 109.74 48.3843 109.622 48.6689C109.504 48.9536 109.473 49.2668 109.533 49.569C109.593 49.8712 109.742 50.1487 109.96 50.3666C110.178 50.5845 110.455 50.7328 110.758 50.7929C111.06 50.853 111.374 50.8222 111.658 50.7043C111.943 50.5864 112.187 50.3867 112.358 50.1305C112.529 49.8744 112.621 49.5732 112.621 49.2651C112.62 48.8521 112.456 48.4561 112.164 48.1641C111.871 47.872 111.475 47.7078 111.062 47.7073Z"
                fill="#4AB775"
              />
              <path
                d="M64.6887 74.1897C64.3033 74.1897 63.9266 74.0755 63.6062 73.8615C63.2857 73.6476 63.036 73.3435 62.8885 72.9876C62.741 72.6318 62.7025 72.2403 62.7776 71.8626C62.8528 71.4849 63.0384 71.1379 63.3109 70.8656C63.5834 70.5932 63.9306 70.4078 64.3085 70.3326C64.6865 70.2575 65.0783 70.2961 65.4343 70.4435C65.7903 70.5908 66.0946 70.8404 66.3087 71.1606C66.5228 71.4809 66.6371 71.8573 66.6371 72.2425C66.6365 72.7587 66.4311 73.2537 66.0658 73.6187C65.7005 73.9838 65.2052 74.1891 64.6887 74.1897ZM64.6887 70.6847C64.3804 70.6847 64.079 70.776 63.8227 70.9472C63.5663 71.1184 63.3665 71.3617 63.2486 71.6463C63.1306 71.931 63.0997 72.2442 63.1598 72.5464C63.22 72.8486 63.3685 73.1261 63.5864 73.344C63.8044 73.5619 64.0822 73.7102 64.3846 73.7703C64.6869 73.8304 65.0003 73.7996 65.2852 73.6817C65.57 73.5638 65.8135 73.3641 65.9847 73.1079C66.156 72.8517 66.2474 72.5506 66.2474 72.2425C66.247 71.8295 66.0826 71.4335 65.7904 71.1415C65.4981 70.8494 65.1019 70.6851 64.6887 70.6847Z"
                fill="#4AB775"
              />
              <path
                d="M51.4392 75.9422C51.0538 75.9422 50.6771 75.828 50.3567 75.614C50.0363 75.4001 49.7865 75.096 49.639 74.7402C49.4916 74.3843 49.453 73.9928 49.5282 73.6151C49.6033 73.2374 49.7889 72.8904 50.0614 72.6181C50.3339 72.3458 50.6811 72.1603 51.0591 72.0852C51.437 72.01 51.8288 72.0486 52.1848 72.196C52.5409 72.3434 52.8452 72.5929 53.0593 72.9132C53.2734 73.2334 53.3876 73.6099 53.3876 73.995C53.387 74.5112 53.1816 75.0062 52.8163 75.3712C52.451 75.7363 51.9558 75.9416 51.4392 75.9422ZM51.4392 72.4372C51.1309 72.4372 50.8295 72.5286 50.5732 72.6997C50.3168 72.8709 50.1171 73.1142 49.9991 73.3988C49.8811 73.6835 49.8502 73.9967 49.9104 74.2989C49.9705 74.6011 50.119 74.8786 50.337 75.0965C50.555 75.3144 50.8327 75.4627 51.1351 75.5228C51.4374 75.5829 51.7509 75.5521 52.0357 75.4342C52.3205 75.3163 52.564 75.1166 52.7352 74.8604C52.9065 74.6043 52.9979 74.3031 52.9979 73.995C52.9975 73.582 52.8331 73.186 52.5409 72.894C52.2486 72.6019 51.8524 72.4377 51.4392 72.4372Z"
                fill="#4AB775"
              />
              <path
                d="M58.0639 95.804C57.6785 95.804 57.3018 95.6898 56.9814 95.4758C56.661 95.2619 56.4112 94.9578 56.2638 94.602C56.1163 94.2461 56.0777 93.8546 56.1529 93.4769C56.2281 93.0992 56.4136 92.7522 56.6861 92.4799C56.9586 92.2076 57.3058 92.0221 57.6838 91.947C58.0617 91.8718 58.4535 91.9104 58.8095 92.0578C59.1656 92.2052 59.4699 92.4547 59.684 92.775C59.8981 93.0952 60.0124 93.4717 60.0124 93.8568C60.0118 94.373 59.8063 94.868 59.441 95.233C59.0757 95.5981 58.5805 95.8034 58.0639 95.804Z"
                fill="#4AB775"
              />
              <path
                d="M111.257 28.8191C110.871 28.8191 110.495 28.7049 110.174 28.4909C109.854 28.277 109.604 27.9728 109.457 27.617C109.309 27.2612 109.271 26.8697 109.346 26.492C109.421 26.1142 109.606 25.7673 109.879 25.495C110.151 25.2226 110.499 25.0372 110.877 24.962C111.255 24.8869 111.646 24.9255 112.002 25.0728C112.358 25.2202 112.663 25.4698 112.877 25.79C113.091 26.1103 113.205 26.4867 113.205 26.8719C113.205 27.3881 112.999 27.8831 112.634 28.2481C112.269 28.6132 111.773 28.8185 111.257 28.8191ZM111.257 25.3141C110.948 25.3141 110.647 25.4054 110.391 25.5766C110.134 25.7478 109.935 25.9911 109.817 26.2757C109.699 26.5604 109.668 26.8736 109.728 27.1758C109.788 27.4779 109.937 27.7555 110.155 27.9734C110.372 28.1912 110.65 28.3396 110.953 28.3997C111.255 28.4598 111.568 28.429 111.853 28.3111C112.138 28.1932 112.381 27.9935 112.553 27.7373C112.724 27.4811 112.815 27.18 112.815 26.8719C112.815 26.4589 112.651 26.0629 112.358 25.7709C112.066 25.4788 111.67 25.3145 111.257 25.3141Z"
                fill="#4AB775"
              />
              <path
                d="M77.9381 52.9648C77.5528 52.9648 77.1761 52.8506 76.8556 52.6367C76.5352 52.4227 76.2855 52.1186 76.138 51.7628C75.9905 51.407 75.9519 51.0154 76.0271 50.6377C76.1023 50.26 76.2879 49.913 76.5604 49.6407C76.8329 49.3684 77.18 49.1829 77.558 49.1078C77.936 49.0326 78.3277 49.0712 78.6838 49.2186C79.0398 49.366 79.3441 49.6155 79.5582 49.9358C79.7723 50.256 79.8866 50.6325 79.8866 51.0176C79.886 51.5338 79.6805 52.0288 79.3152 52.3938C78.95 52.7589 78.4547 52.9642 77.9381 52.9648ZM77.9381 49.4598C77.6298 49.4598 77.3285 49.5512 77.0721 49.7223C76.8158 49.8935 76.616 50.1368 76.498 50.4215C76.3801 50.7061 76.3492 51.0193 76.4093 51.3215C76.4695 51.6237 76.6179 51.9013 76.8359 52.1191C77.0539 52.337 77.3317 52.4853 77.634 52.5454C77.9364 52.6056 78.2498 52.5747 78.5346 52.4568C78.8195 52.3389 79.0629 52.1392 79.2342 51.883C79.4055 51.6269 79.4969 51.3257 79.4969 51.0176C79.4964 50.6046 79.332 50.2086 79.0398 49.9166C78.7476 49.6246 78.3514 49.4603 77.9381 49.4598Z"
                fill="#4AB775"
              />
              <path
                d="M71.3134 39.1394C70.928 39.1394 70.5513 39.0252 70.2309 38.8113C69.9105 38.5973 69.6607 38.2932 69.5132 37.9374C69.3658 37.5816 69.3272 37.19 69.4024 36.8123C69.4776 36.4346 69.6631 36.0876 69.9356 35.8153C70.2081 35.543 70.5553 35.3575 70.9333 35.2824C71.3112 35.2072 71.703 35.2458 72.059 35.3932C72.4151 35.5406 72.7194 35.7902 72.9335 36.1104C73.1476 36.4306 73.2618 36.8071 73.2618 37.1922C73.2612 37.7085 73.0558 38.2034 72.6905 38.5685C72.3252 38.9335 71.83 39.1388 71.3134 39.1394ZM71.3134 35.6344C71.0051 35.6344 70.7037 35.7258 70.4474 35.8969C70.191 36.0681 69.9913 36.3114 69.8733 36.5961C69.7553 36.8807 69.7244 37.1939 69.7846 37.4961C69.8447 37.7983 69.9932 38.0759 70.2112 38.2937C70.4292 38.5116 70.7069 38.6599 71.0093 38.7201C71.3117 38.7802 71.6251 38.7493 71.9099 38.6314C72.1947 38.5135 72.4382 38.3138 72.6095 38.0577C72.7807 37.8015 72.8721 37.5003 72.8721 37.1922C72.8717 36.7792 72.7073 36.3832 72.4151 36.0912C72.1229 35.7992 71.7267 35.6349 71.3134 35.6344Z"
                fill="#4AB775"
              />
              <path
                d="M38.1897 96.7776C37.8043 96.7776 37.4276 96.6634 37.1072 96.4495C36.7868 96.2355 36.537 95.9314 36.3896 95.5756C36.2421 95.2198 36.2035 94.8282 36.2787 94.4505C36.3539 94.0728 36.5394 93.7258 36.8119 93.4535C37.0844 93.1812 37.4316 92.9957 37.8096 92.9206C38.1875 92.8455 38.5793 92.884 38.9353 93.0314C39.2914 93.1788 39.5957 93.4284 39.8098 93.7486C40.0239 94.0688 40.1382 94.4453 40.1382 94.8304C40.1375 95.3467 39.9321 95.8416 39.5668 96.2066C39.2015 96.5717 38.7063 96.777 38.1897 96.7776ZM38.1897 93.2726C37.8814 93.2726 37.58 93.364 37.3237 93.5352C37.0674 93.7063 36.8676 93.9496 36.7496 94.2343C36.6316 94.5189 36.6007 94.8321 36.6609 95.1343C36.721 95.4365 36.8695 95.7141 37.0875 95.9319C37.3055 96.1498 37.5832 96.2981 37.8856 96.3583C38.188 96.4184 38.5014 96.3875 38.7862 96.2696C39.071 96.1517 39.3145 95.952 39.4858 95.6959C39.657 95.4397 39.7485 95.1385 39.7485 94.8304C39.748 94.4174 39.5836 94.0215 39.2914 93.7294C38.9992 93.4374 38.603 93.2731 38.1897 93.2726Z"
                fill="#4AB775"
              />
              <path
                d="M157.045 73.995H156.656V90.9237H157.045V73.995Z"
                fill="#4AB775"
              />
              <path
                d="M157.045 98.6513H156.656V111.187H157.045V98.6513Z"
                fill="#4AB775"
              />
              <path
                d="M156.851 96.7776C156.465 96.7776 156.088 96.6634 155.768 96.4495C155.448 96.2355 155.198 95.9314 155.05 95.5756C154.903 95.2198 154.864 94.8282 154.94 94.4505C155.015 94.0728 155.2 93.7258 155.473 93.4535C155.745 93.1812 156.092 92.9957 156.47 92.9206C156.848 92.8455 157.24 92.884 157.596 93.0314C157.952 93.1788 158.257 93.4284 158.471 93.7486C158.685 94.0688 158.799 94.4453 158.799 94.8304C158.798 95.3467 158.593 95.8416 158.228 96.2066C157.862 96.5717 157.367 96.777 156.851 96.7776ZM156.851 93.2726C156.542 93.2726 156.241 93.364 155.985 93.5352C155.728 93.7063 155.528 93.9496 155.41 94.2343C155.292 94.5189 155.262 94.8321 155.322 95.1343C155.382 95.4365 155.53 95.7141 155.748 95.9319C155.966 96.1498 156.244 96.2981 156.546 96.3583C156.849 96.4184 157.162 96.3875 157.447 96.2696C157.732 96.1517 157.975 95.952 158.147 95.6959C158.318 95.4397 158.409 95.1385 158.409 94.8304C158.409 94.4174 158.244 94.0215 157.952 93.7294C157.66 93.4374 157.264 93.2731 156.851 93.2726Z"
                fill="#4AB775"
              />
              <path
                d="M144.186 81.3945C143.8 81.3945 143.423 81.2803 143.103 81.0663C142.783 80.8523 142.533 80.5482 142.385 80.1924C142.238 79.8366 142.199 79.4451 142.275 79.0674C142.35 78.6896 142.535 78.3427 142.808 78.0703C143.08 77.798 143.427 77.6126 143.805 77.5374C144.183 77.4623 144.575 77.5008 144.931 77.6482C145.287 77.7956 145.592 78.0452 145.806 78.3654C146.02 78.6856 146.134 79.0621 146.134 79.4472C146.133 79.9635 145.928 80.4584 145.563 80.8235C145.197 81.1885 144.702 81.3939 144.186 81.3945ZM144.186 77.8894C143.877 77.8894 143.576 77.9808 143.32 78.152C143.063 78.3232 142.863 78.5665 142.745 78.8511C142.627 79.1357 142.597 79.449 142.657 79.7512C142.717 80.0533 142.865 80.3309 143.083 80.5488C143.301 80.7666 143.579 80.915 143.881 80.9751C144.184 81.0352 144.497 81.0044 144.782 80.8864C145.067 80.7685 145.31 80.5689 145.482 80.3127C145.653 80.0565 145.744 79.7553 145.744 79.4472C145.744 79.0342 145.579 78.6383 145.287 78.3462C144.995 78.0542 144.599 77.8899 144.186 77.8894Z"
                fill="#4AB775"
              />
              <path
                d="M130.936 103.788C130.551 103.788 130.174 103.673 129.854 103.46C129.533 103.246 129.283 102.941 129.136 102.586C128.988 102.23 128.95 101.838 129.025 101.461C129.1 101.083 129.286 100.736 129.558 100.464C129.831 100.191 130.178 100.006 130.556 99.9306C130.934 99.8555 131.326 99.8941 131.682 100.041C132.038 100.189 132.342 100.438 132.556 100.759C132.77 101.079 132.885 101.455 132.885 101.84C132.884 102.357 132.678 102.852 132.313 103.217C131.948 103.582 131.453 103.787 130.936 103.788ZM130.936 100.283C130.628 100.283 130.326 100.374 130.07 100.545C129.814 100.716 129.614 100.96 129.496 101.244C129.378 101.529 129.347 101.842 129.407 102.144C129.467 102.447 129.616 102.724 129.834 102.942C130.052 103.16 130.33 103.308 130.632 103.368C130.934 103.428 131.248 103.398 131.533 103.28C131.817 103.162 132.061 102.962 132.232 102.706C132.403 102.45 132.495 102.149 132.495 101.84C132.494 101.427 132.33 101.031 132.038 100.739C131.746 100.447 131.349 100.283 130.936 100.283Z"
                fill="#4AB775"
              />
              <path
                d="M91.1876 44.9812C90.8023 44.9812 90.4255 44.867 90.1051 44.653C89.7847 44.439 89.535 44.1349 89.3875 43.7791C89.24 43.4233 89.2014 43.0318 89.2766 42.654C89.3518 42.2763 89.5374 41.9293 89.8099 41.657C90.0824 41.3847 90.4295 41.1992 90.8075 41.1241C91.1855 41.049 91.5772 41.0875 91.9333 41.2349C92.2893 41.3823 92.5936 41.6319 92.8077 41.9521C93.0218 42.2723 93.1361 42.6488 93.1361 43.0339C93.1355 43.5502 92.93 44.0451 92.5647 44.4102C92.1995 44.7752 91.7042 44.9806 91.1876 44.9812Z"
                fill="#4AB775"
              />
              <path
                d="M130.936 62.701C130.551 62.701 130.174 62.5868 129.854 62.3728C129.533 62.1589 129.283 61.8548 129.136 61.499C128.988 61.1431 128.95 60.7516 129.025 60.3739C129.1 59.9962 129.286 59.6492 129.558 59.3769C129.831 59.1045 130.178 58.9191 130.556 58.844C130.934 58.7688 131.326 58.8074 131.682 58.9548C132.038 59.1021 132.342 59.3517 132.556 59.6719C132.77 59.9922 132.885 60.3686 132.885 60.7538C132.884 61.27 132.678 61.765 132.313 62.13C131.948 62.4951 131.453 62.7004 130.936 62.701ZM130.936 59.196C130.628 59.196 130.326 59.2873 130.07 59.4585C129.814 59.6297 129.614 59.873 129.496 60.1576C129.378 60.4423 129.347 60.7555 129.407 61.0577C129.467 61.3599 129.616 61.6374 129.834 61.8553C130.052 62.0732 130.33 62.2215 130.632 62.2816C130.934 62.3417 131.248 62.3109 131.533 62.193C131.817 62.0751 132.061 61.8754 132.232 61.6192C132.403 61.3631 132.495 61.0619 132.495 60.7538C132.494 60.3408 132.33 59.9448 132.038 59.6528C131.746 59.3607 131.349 59.1965 130.936 59.196Z"
                fill="#4AB775"
              />
              <path
                d="M144.186 57.054C143.8 57.054 143.423 56.9398 143.103 56.7259C142.783 56.5119 142.533 56.2078 142.385 55.852C142.238 55.4962 142.199 55.1046 142.275 54.7269C142.35 54.3492 142.535 54.0022 142.808 53.7299C143.08 53.4576 143.427 53.2721 143.805 53.197C144.183 53.1218 144.575 53.1604 144.931 53.3078C145.287 53.4552 145.592 53.7047 145.806 54.025C146.02 54.3452 146.134 54.7217 146.134 55.1068C146.133 55.623 145.928 56.118 145.563 56.483C145.197 56.8481 144.702 57.0534 144.186 57.054Z"
                fill="#4AB775"
              />
              <path
                d="M124.311 56.0804C123.926 56.0804 123.549 55.9662 123.229 55.7522C122.908 55.5383 122.659 55.2342 122.511 54.8783C122.364 54.5225 122.325 54.131 122.4 53.7533C122.476 53.3756 122.661 53.0286 122.934 52.7563C123.206 52.4839 123.553 52.2985 123.931 52.2233C124.309 52.1482 124.701 52.1868 125.057 52.3342C125.413 52.4815 125.717 52.7311 125.931 53.0513C126.146 53.3716 126.26 53.748 126.26 54.1332C126.259 54.6494 126.054 55.1444 125.688 55.5094C125.323 55.8745 124.828 56.0798 124.311 56.0804Z"
                fill="#4AB775"
              />
              <path
                d="M178.868 56.0837L143.987 55.4962L143.994 55.1068L178.478 55.6877V38.9447H178.868V56.0837Z"
                fill="#2F2E41"
              />
              <path
                d="M124.491 54.2083L124.132 54.058L142.497 10.1256H171.854V10.5151H142.757L124.491 54.2083Z"
                fill="#2F2E41"
              />
              <path
                d="M98.0072 70.6847H10.132V49.4598H10.5216V70.2952H98.0072V70.6847Z"
                fill="#2F2E41"
              />
              <path
                d="M91.1876 43.2286H32.9289V19.4724H33.3186V42.8392H91.1876V43.2286Z"
                fill="#2F2E41"
              />
              <path
                d="M58.2588 129.686H19.4845V129.296H57.8691V93.662H58.2588V129.686Z"
                fill="#2F2E41"
              />
            </g>
            <path
              d="M51.0724 252.909L39.3965 250.93C36.802 245.962 34.4898 240.851 32.4709 235.623L37.759 234.828L31.7809 233.815C29.3487 227.325 28.1489 222.873 28.1489 222.873C28.1489 222.873 51.8542 227.107 70.6329 238.48L74.4558 253.188L75.1929 241.463C77.261 242.918 79.2356 244.502 81.1049 246.205C99.8944 263.437 109.498 283.544 102.556 291.114C95.6131 298.684 74.753 290.85 55.9635 273.618C50.1385 268.276 45.2529 261.369 41.2828 254.381L51.0724 252.909Z"
              fill="#2D9F5A"
            />
            <path
              d="M98.5295 292.124C98.0142 292.137 95.5101 292.144 94.9948 292.144C94.4795 292.144 91.9754 292.137 91.46 292.124L94.9948 94.37L98.5295 292.124Z"
              fill="#3F3D56"
            />
            <path
              d="M72.4328 234.107L63.4607 226.378C63.8078 220.784 64.4701 215.214 65.4445 209.694L70.3822 211.747L65.7884 207.79C67.0611 200.977 68.3353 196.545 68.3353 196.545C68.3353 196.545 86.4396 212.423 96.6359 231.866L92.306 246.433L98.9975 236.777C100.016 239.091 100.888 241.468 101.607 243.892C108.785 268.356 106.613 290.532 96.7569 293.424C86.9008 296.315 73.0927 278.827 65.9155 254.363C63.6905 246.779 63.0784 238.341 63.2919 230.307L72.4328 234.107Z"
              fill="#4AB775"
            />
            <defs>
              <clipPath id="clip0">
                <rect width="189" height="155" fill="white" />
              </clipPath>
            </defs>
          </svg>