<svg id="Layer_1" data-name="Layer 1" xmlns="http://www.w3.org/2000/svg" xmlns:xlink="http://www.w3.org/1999/xlink" viewBox="0 0 392.02 280.1"><defs><style>.cls-1{fill:#f48f4a;}.cls-2{fill:url(#Namnlös_övertoning);}.cls-3{fill:url(#Namnlös_övertoning_2);}.cls-4{fill:url(#Namnlös_övertoning_61);}.cls-5{fill:#ffdddc;}.cls-6{fill:none;stroke:#f7931e;stroke-miterlimit:10;}.cls-7{fill:#f9635c;}.cls-8{fill:#e75a59;}.cls-9{fill:#fff;}.cls-10{fill:#68e1fd;}.cls-11{opacity:0.1;isolation:isolate;}.cls-12{fill:#792155;}.cls-13{fill:#995f85;}.cls-14{fill:#a87398;}.cls-15{fill:#603813;}.cls-16{fill:#111224;}.cls-17{fill:#abdb3a;}.cls-18{fill:#e5ad88;}.cls-19{fill:#5699d1;}.cls-20{fill:#6da8e2;}.cls-21{fill:#fcdcc3;}.cls-22{fill:#fee565;}.cls-23{fill:#f2f2f2;}</style><linearGradient id="Namnlös_övertoning" x1="277.08" y1="123.52" x2="334.12" y2="167.54" gradientTransform="matrix(1.01, 0, 0, -1.01, 0.37, 318.24)" gradientUnits="userSpaceOnUse"><stop offset="0" stop-color="#ffabc1"/><stop offset="0.99" stop-color="#e57ebc"/></linearGradient><linearGradient id="Namnlös_övertoning_2" x1="252.3" y1="106.47" x2="298.38" y2="142.04" xlink:href="#Namnlös_övertoning"/><linearGradient id="Namnlös_övertoning_61" x1="85.26" y1="84.83" x2="109.14" y2="125.57" gradientTransform="matrix(1.01, 0, 0, -1.01, 0.37, 318.24)" gradientUnits="userSpaceOnUse"><stop offset="0.12" stop-color="#f48f4a"/><stop offset="1" stop-color="#f20b04"/></linearGradient></defs><title>fitness</title><path class="cls-1" d="M11.69,198l150.22,86.72a24.67,24.67,0,0,0,24.67,0L394.27,164.83a10,10,0,0,0,0-17.25L240.06,58.07a13,13,0,0,0-13,0L11.69,182.43a9,9,0,0,0,0,15.59Z" transform="translate(-7.2 -7.96)"/><polygon class="cls-2" points="296.66 149.1 254.08 175.27 302.91 205.47 352.61 176.9 296.66 149.1"/><polygon class="cls-3" points="280.83 175.02 238.25 201.18 267.18 218.08 309.78 192.04 280.83 175.02"/><polygon class="cls-4" points="74.24 179.58 31.67 205.76 115.68 254.83 159.13 229.52 74.24 179.58"/><polygon class="cls-5" points="134.03 55.24 134.03 89.9 180.96 62.5 180.96 29.82 134.03 55.24"/><path class="cls-6" d="M159.6,67.82l-10.33,6.09s-2.48,1.54-1.94,3.82,2.58,1.71,3.57,1.21,25.26-13.71,25.26-13.71,1.85.49,1.28,3.25-7.64,6.25-7.64,6.25" transform="translate(-7.2 -7.96)"/><path class="cls-7" d="M155.86,68.85h0a2.6,2.6,0,0,0,3.87,2.34l10.8-6.09a2.6,2.6,0,0,0,1.32-2.25h0A2.6,2.6,0,0,0,168,60.63l-10.8,6.09A2.6,2.6,0,0,0,155.86,68.85Z" transform="translate(-7.2 -7.96)"/><path class="cls-7" d="M155.86,80.67h0A2.6,2.6,0,0,0,159.73,83l10.8-6.09a2.6,2.6,0,0,0,1.32-2.25h0A2.6,2.6,0,0,0,168,72.41l-10.8,6.09A2.6,2.6,0,0,0,155.86,80.67Z" transform="translate(-7.2 -7.96)"/><path class="cls-8" d="M304.3,154.47v-7.1l-3.62,1S303.07,154.37,304.3,154.47Z" transform="translate(-7.2 -7.96)"/><path class="cls-8" d="M71.88,191.4v-7.71l3.76,3.76S75.85,191.38,71.88,191.4Z" transform="translate(-7.2 -7.96)"/><path class="cls-8" d="M74.81,186.19l141.29-81.07a9.9,9.9,0,0,1,9.93,0l75.43,44.16a5.82,5.82,0,0,1,0,10.06L161.61,240.22a13.05,13.05,0,0,1-13.19-.08l-73.69-43.9a5.82,5.82,0,0,1,.08-10Z" transform="translate(-7.2 -7.96)"/><path class="cls-5" d="M74.81,179.81,216.09,98.74a9.9,9.9,0,0,1,9.93,0l75.43,44.11a5.82,5.82,0,0,1,0,10.06L161.61,233.83a13.05,13.05,0,0,1-13.19-.08l-73.69-43.9a5.82,5.82,0,0,1,.08-10Z" transform="translate(-7.2 -7.96)"/><path class="cls-9" d="M212.66,108.87c.78.26,72.15,41.89,72.15,41.89L165.6,220.59,93.53,179Z" transform="translate(-7.2 -7.96)"/><path class="cls-8" d="M134.84,214a1.84,1.84,0,0,0,.66-2.51l-.1-.16a13.51,13.51,0,0,0-3.47-2.62c-1.22-.76-2.49-1.42-3.73-2.15l-9.6-5.62-7.88-4.61a4.06,4.06,0,0,0-3.49-.38,4.12,4.12,0,0,0-2,1.55,1.68,1.68,0,0,0,.57,2.31l.19.1,14.51,8.4,6.25,3.62,3.61,2.11a4.37,4.37,0,0,0,3.69.38A3.19,3.19,0,0,0,134.84,214Z" transform="translate(-7.2 -7.96)"/><ellipse class="cls-8" cx="91.77" cy="184.32" rx="2.52" ry="2.08"/><circle class="cls-10" cx="324.51" cy="136.01" r="31.06"/><path class="cls-11" d="M350.61,119.32a34.1,34.1,0,0,1,2.35,7.95c2.81,17-8.64,34.12-25.27,38.43a42.37,42.37,0,0,1-17.59.59,31.06,31.06,0,1,0,40.51-47Z" transform="translate(-7.2 -7.96)"/><circle class="cls-10" cx="346.86" cy="164.94" r="17.62"/><path class="cls-11" d="M364.79,158.91a19.35,19.35,0,0,1,1.34,4.51,19.69,19.69,0,0,1-14.34,21.8,24,24,0,0,1-10,.33,17.62,17.62,0,1,0,23-26.64Z" transform="translate(-7.2 -7.96)"/><ellipse class="cls-12" cx="292.59" cy="177.16" rx="10.91" ry="8.96" transform="translate(8.22 369.65) rotate(-67.07)"/><polyline class="cls-12" points="290.96 159.81 295.44 163.06 284.3 181.73 279.91 178.55"/><ellipse class="cls-13" cx="296.71" cy="180.09" rx="10.91" ry="8.96" transform="translate(8.05 375.23) rotate(-67.07)"/><ellipse class="cls-12" cx="297.73" cy="180.52" rx="6.07" ry="4.99" transform="translate(8.27 376.43) rotate(-67.07)"/><path class="cls-14" d="M322.07,191.09a23.94,23.94,0,0,1-4.8-3q-4.29-2.81-8.56-5.68l-4-2.67a17,17,0,0,0-3-2.1c-2.24-.88-4.76,1.48-5.23,3.55a5.19,5.19,0,0,0,.71,4.33c.93,1.19,2.49,1.76,3.7,2.59l4.06,2.78,7.81,5.3,1.91,1.29" transform="translate(-7.2 -7.96)"/><ellipse class="cls-12" cx="309.2" cy="188.01" rx="10.91" ry="8.96" transform="translate(8.38 391.57) rotate(-67.07)"/><polyline class="cls-12" points="307.58 170.65 312.06 173.9 300.92 192.57 296.53 189.39"/><ellipse class="cls-13" cx="313.33" cy="190.93" rx="10.91" ry="8.96" transform="translate(8.22 397.16) rotate(-67.07)"/><ellipse class="cls-12" cx="314.35" cy="191.36" rx="6.07" ry="4.99" transform="translate(8.43 398.36) rotate(-67.07)"/><polygon class="cls-10" points="216.24 95.75 117.38 159.23 117.38 171.58 159.92 195.85 261.59 135.41 261.59 123.18 216.24 95.75"/><polygon class="cls-11" points="261.59 123.29 216.24 95.86 117.38 159.34 160.01 183.38 261.59 123.29"/><polyline class="cls-15" points="255.92 120 225.76 101.86 135.06 156.06 164.09 173.75"/><path class="cls-7" d="M188.14,73.73a.73.73,0,0,0-.67-.46,1.63,1.63,0,0,1-.4,1.68,8.44,8.44,0,0,1-2.66,1.85c-.45.35-.91.68-1.37,1a1.41,1.41,0,0,1-1,.24,4.8,4.8,0,0,1-1.36,1.23,13.42,13.42,0,0,0-2.17,1.54c-.52.46-1.74,1.39-1.37,2s1.27.43,2.16,0l-.21.26c-.67.83-1,2.28.5,2.33a1.37,1.37,0,0,0,.16,1.54c.85.71,1.52,0,1.91-.41a1.39,1.39,0,0,0,1.24.36,1.21,1.21,0,0,0,.86-.65c2.86,1.4,3.91-5.71,4.16-8.39C188.28,76.56,188.68,74.91,188.14,73.73Z" transform="translate(-7.2 -7.96)"/><path class="cls-16" d="M182.56,83.48a1.11,1.11,0,0,0-.45-.76A3.18,3.18,0,0,0,184,81.62a2.84,2.84,0,0,0,.35-2.78A.22.22,0,1,0,184,79a2.4,2.4,0,0,1-.41,2.5,3.49,3.49,0,0,1-2.23.92h-.08a.89.89,0,0,0,0-.15c-.37-1.09-1.63-.26-2,.32-.16.23.18.52.36.28s.55-.7.93-.68c.74,0,.08,1.19,0,1.4a16.88,16.88,0,0,1-1,1.77c-.16.24.19.53.36.28a17.83,17.83,0,0,0,1.11-1.87,4.31,4.31,0,0,0,.39-.88c1.85.06.59,2.47.19,3.44-.11.26.3.46.42.18a8.94,8.94,0,0,0,.77-2.6h0c.66-.11,1.43,0,1.32.85a7.8,7.8,0,0,1-.44,1.45c-.09.27.32.46.42.18.22-.69.69-1.59.4-2.32S183.2,83.38,182.56,83.48Z" transform="translate(-7.2 -7.96)"/><path class="cls-7" d="M230.63,100.81l10.15,1.4s2.23-.21,2.65-3.16-1.43-3-1.43-3l-9.46-2.81" transform="translate(-7.2 -7.96)"/><path class="cls-17" d="M241.62,93.95c-.71,0-1.65,1.28-1.7,1.51s1.3.32,1.3.32c1.85,1.65,1.43,4.28,1,4.55s-2.19-1.46-2.77-.94a6.46,6.46,0,0,0-1,3.25c.11.35,2.49,0,2.62.15,1.5,1.09,2.59,3.46,3.17,5.17s.85,3.1,2.32,4.19a3,3,0,0,0,2.91.52c1-.51,1.44-2,1.57-3,.33-2.66-.56-5.42-1.45-7.89a36.83,36.83,0,0,0-2.8-6.47C246.53,94.85,242.34,93.9,241.62,93.95Z" transform="translate(-7.2 -7.96)"/><path class="cls-7" d="M189,137.37V147a3.86,3.86,0,0,0,3.77,2.66,3.11,3.11,0,0,0,3.22-2.72l.77-9" transform="translate(-7.2 -7.96)"/><path class="cls-17" d="M198.06,146.39c-.18-.76-1.67-1.56-1.94-1.57s-.12,1.46-.12,1.46c-1.46,2.29-4.38,2.3-4.74,1.88s1.2-2.63.54-3.16a7.1,7.1,0,0,0-3.69-.54c-.36.18.39,2.69.29,2.86-.9,1.82-3.3,3.41-5.07,4.32s-3.21,1.46-4.13,3.26a3.29,3.29,0,0,0,0,3.25c.73,1,2.4,1.22,3.55,1.18,2.93-.1,5.77-1.55,8.28-3a40.39,40.39,0,0,0,6.51-4.16C197.92,151.86,198.24,147.15,198.06,146.39Z" transform="translate(-7.2 -7.96)"/><path class="cls-18" d="M188.28,61.46c-1.19,6.23-3.23,11.82-7.1,16.65.23.64,1.68,3.58,8.94,3.58l6.52-8.6Z" transform="translate(-7.2 -7.96)"/><path class="cls-19" d="M190.2,77.24s-9.13,11.16-4.94,21.43c3.78,9.39,30.17,8.73,46.62,6.09,0,0,6.85-4.32,3-11.52,0,0-21-3-24.22-3.29" transform="translate(-7.2 -7.96)"/><path class="cls-20" d="M192.12,78.76s-10,25-9.95,30.75,4.6,30.75,4.6,30.75,5.47,3.42,12.86,0c0,0-.94-27.82.21-31.78s11.55-23.56,5.54-31.25Z" transform="translate(-7.2 -7.96)"/><path class="cls-21" d="M190.2,77.24c-.76-.77-5.48-20.22-2.39-24.5S205,55.57,207.1,58.66s-1.47,16.57-1.74,18.58S195.89,83,190.2,77.24Z" transform="translate(-7.2 -7.96)"/><path class="cls-9" d="M201,80h-.14A93.56,93.56,0,0,1,197.38,94c-1.73,5.22-4.47,10.21-5.33,15.68s-.56,10.93-.49,16.33q.1,7.84.52,15.67h.74q-.41-7.86-.53-15.72c-.07-5.73-.47-11.79.7-17.45,1.12-5.41,3.87-10.42,5.52-15.68a94.06,94.06,0,0,0,3-13.13A4.58,4.58,0,0,1,201,80Z" transform="translate(-7.2 -7.96)"/><path class="cls-7" d="M192.6,46.5c-.1.51-.45,8.93,3.66,10.34s8.93-7.26,6.93-11.39S193.75,40.74,192.6,46.5Z" transform="translate(-7.2 -7.96)"/><path class="cls-16" d="M200,47.95c.69.9.71,3.27.46,4.39a7.78,7.78,0,0,0,0,1.55,11.69,11.69,0,0,0-.07,1.35,8.89,8.89,0,0,0,1.09-1,.48.48,0,0,0,.5.05,2.51,2.51,0,0,0,.45-.28c.35-.23.75-.37,1.11-.58a3.52,3.52,0,0,0,1.38-2,9.43,9.43,0,0,0,.64-2.72,9.85,9.85,0,0,0-1-5.39c-2.22-4.24-7.91-4.33-11.4-1.55.17-.37.59-1.47-.63-1.21-1.45.3-2.61,3.24-2.61,3.24-.21-.52.51-1.92.51-1.92s-1.72.3-1.43,3.1,3.61,4.51,4.69,2.1S195,45,195,45c-1.1,2-.06,3.42,2.36,3.88A2.32,2.32,0,0,0,200,47.95Z" transform="translate(-7.2 -7.96)"/><path class="cls-7" d="M201.93,50.37a1.38,1.38,0,0,0-2.14-.39,5,5,0,0,0-1,1.78.8.8,0,0,0,0,.56,1.13,1.13,0,0,0,0,1.08,1.09,1.09,0,0,0,1.45.38C201.26,53.25,202.65,51.65,201.93,50.37Z" transform="translate(-7.2 -7.96)"/><circle class="cls-17" cx="193.69" cy="43.75" r="2.78"/><path class="cls-17" d="M194.61,40.72s6.83,1.42,6,9.53l2.14-.63s1.52-6.94-5.95-9.79A2.29,2.29,0,0,0,194.61,40.72Z" transform="translate(-7.2 -7.96)"/><path class="cls-16" d="M203.66,42.14s.6-5.8,5.23-5.69,4.33,3.84,7.46,3.84S222,34,225.73,35.85s6.35,13.85-2.62,14.39-10.5-7.54-12.81-6.37-3.24,5.07-6.25,5.23" transform="translate(-7.2 -7.96)"/><path class="cls-7" d="M215.07,76.47a.7.7,0,0,0-.46-.78c.49-.73-.54-1.78-1.21-1.1q-.37.38-.75.71a.78.78,0,0,0-.93-.6l-.16.05a.7.7,0,0,0-.77.14l-1.71,1.47h0a4.87,4.87,0,0,1-2.64.71,12.44,12.44,0,0,0-2.48.13c-.63.1-2,.22-2,.87s.78,1,1.67,1.11l-.29.1c-.94.31-2,1.12-1.24,2.14a.85.85,0,0,0-.4,1.09c.3,1,1.13,1,1.91.77a1.3,1.3,0,0,0,.79.89,2.45,2.45,0,0,0,1.47-.26c1.54,2.1,5.43-2.34,7-4.3C213.76,78.75,214.91,77.66,215.07,76.47Z" transform="translate(-7.2 -7.96)"/><path class="cls-21" d="M220.25,69.21c-.81-4.85-4.44-7.85-8.65-9.88-2.14-1-4.37-1.85-6.56-2.78-1.24-.53-2.47-1.08-3.68-1.63-.24-.11-2.12-.71-2.17-1l2.32,10.54c1.82.85,1.72,1.64,3.51,2.54,1.52.76,4.86,1.54,5.25,3.42a3.61,3.61,0,0,1,.05,1.14h0a6.7,6.7,0,0,1-3,4.18,40.6,40.6,0,0,0,4.85,6S221.48,76.39,220.25,69.21Z" transform="translate(-7.2 -7.96)"/><polygon class="cls-5" points="65.66 93.49 65.66 128.15 112.6 100.75 112.6 68.08 65.66 93.49"/><polygon class="cls-22" points="90.77 29.11 90.77 68.83 144.53 37.43 144.53 0 90.77 29.11"/><path class="cls-7" d="M111.54,41.51h0A5.14,5.14,0,0,1,119,46.09v5a5.14,5.14,0,0,1-2.92,4.63h0a5.14,5.14,0,0,1-7.35-4.63v-5A5.14,5.14,0,0,1,111.54,41.51Z" transform="translate(-7.2 -7.96)"/><polygon class="cls-7" points="110.55 42.69 126.85 33.66 126.85 28.47 110.55 37.69 110.55 42.69"/><path class="cls-7" d="M134.63,31h0a5.14,5.14,0,0,1,7.47,4.58v5a5.14,5.14,0,0,1-2.92,4.63h0a5.14,5.14,0,0,1-7.35-4.63v-5A5.14,5.14,0,0,1,134.63,31Z" transform="translate(-7.2 -7.96)"/><polygon class="cls-7" points="82.72 106.32 96.39 98.75 96.39 94.39 82.72 102.13 82.72 106.32"/><rect class="cls-7" x="94.43" y="86.38" width="7.15" height="16.92" rx="3.57" ry="3.57"/><rect class="cls-7" x="78.04" y="95.63" width="7.15" height="16.92" rx="3.57" ry="3.57"/><rect class="cls-7" x="74.95" y="102.37" width="4.8" height="7.89" rx="2.4" ry="2.4"/><rect class="cls-7" x="100.06" y="90.46" width="4.8" height="7.89" rx="2.4" ry="2.4"/><path class="cls-23" d="M147.17,110.21,171.06,98s4.06-.63,5.07,2.2l-16.66,9.43-1.67,5.55" transform="translate(-7.2 -7.96)"/><path class="cls-23" d="M186.32,192.39l18.27-58.22,15.12-8.58s.74-2.47-3.7-2.71l-20.36,11.23-53.19-28.5s-3.45-1.48-5.55,2.34l15.43,8.88-14,41.5,7.37-4.73,11.69-34.1L195.17,139l3.33-1.85S180.23,195.62,180.23,196,183.55,194.18,186.32,192.39Z" transform="translate(-7.2 -7.96)"/></svg>